<svg width="16" height="16" viewBox="0 0 16 16" fill="none" xmlns="http://www.w3.org/2000/svg">
<path fill-rule="evenodd" clip-rule="evenodd" d="M15.9783 0.172338C15.9917 0.205155 15.9989 0.239574 15.9989 0.274259V4.00371C15.9989 4.0387 15.992 4.07335 15.9786 4.10568C15.9652 4.138 15.9455 4.16736 15.9208 4.19209C15.896 4.21682 15.8666 4.23643 15.8343 4.2498C15.802 4.26316 15.7673 4.27002 15.7323 4.26999C15.5851 4.26999 15.4911 4.13205 15.4911 3.98477V0.891921L10.0562 6.32308C10.0315 6.34784 10.0021 6.36748 9.9698 6.38088C9.93748 6.39429 9.90283 6.40119 9.86783 6.4012C9.83283 6.40122 9.79818 6.39434 9.76584 6.38095C9.73351 6.36757 9.70412 6.34795 9.67937 6.32322C9.65461 6.29848 9.63497 6.26911 9.62157 6.23678C9.60817 6.20446 9.60126 6.16981 9.60125 6.13481C9.60124 6.09982 9.60812 6.06516 9.6215 6.03283C9.63488 6.00049 9.6545 5.9711 9.67923 5.94635L15.1131 0.516254H12.0226C11.8753 0.516254 11.7337 0.421537 11.7337 0.274259C11.7337 0.12698 11.8532 0.0079834 12.0002 0.0079834H15.7321C15.7848 0.00800095 15.8363 0.0236189 15.8801 0.0528679C15.9239 0.0821169 15.9581 0.123687 15.9783 0.172338ZM4.61253 6.10083L9.90149 11.3861L12.1187 9.909C12.1668 9.87691 12.224 9.86133 12.2818 9.8646C12.3395 9.86787 12.3947 9.88982 12.4388 9.92714L15.9042 12.8572C15.9309 12.8799 15.9529 12.9076 15.969 12.9388C15.985 12.97 15.9947 13.004 15.9976 13.039C16.0004 13.0739 15.9963 13.1091 15.9856 13.1425C15.9748 13.1758 15.9576 13.2067 15.9348 13.2334L13.8975 15.6211C13.8899 15.6296 13.8821 15.638 13.8743 15.6462C13.6435 15.877 13.3238 15.9912 12.9188 15.9912C11.215 15.9912 8.03222 13.9538 4.99887 10.9213C3.2302 9.15366 1.76782 7.2948 0.880943 5.68675C-0.0680968 3.96636 -0.250861 2.73904 0.35186 2.13685C0.35693 2.13178 0.374806 2.11311 0.380142 2.10884L2.76355 0.0717507C2.81744 0.0258596 2.88841 0.00344765 2.95832 0.00851702C3.02902 0.0143868 3.09439 0.0482715 3.14028 0.102167L6.07251 3.56535C6.10991 3.60938 6.13193 3.66441 6.13526 3.72208C6.13858 3.77976 6.12301 3.83695 6.09092 3.88498L4.61253 6.10083ZM2.90629 0.650726L0.7382 2.50398L0.728862 2.51359C0.329182 2.91273 0.560772 4.00291 1.34786 5.42954C2.21125 6.99464 3.64188 8.81135 5.37587 10.5445C8.22379 13.3919 11.3962 15.4584 12.9188 15.4584C13.1774 15.4584 13.3703 15.3965 13.4922 15.2748L15.3556 13.0915L12.2475 10.4632L10.0154 11.9504C9.96419 11.9847 9.90263 12.0002 9.84126 11.9941C9.77989 11.9881 9.72252 11.9609 9.67897 11.9173L4.08132 6.32308C4.03768 6.27958 4.01051 6.22228 4.00442 6.16097C3.99834 6.09966 4.01373 6.03813 4.04797 5.98691L5.53596 3.75612L2.90629 0.650726Z" fill="white"/>
</svg>
