<svg width="11" height="11" viewBox="0 0 11 11" fill="none" xmlns="http://www.w3.org/2000/svg">
<path d="M5.49771 0.916664C2.96542 0.916664 0.916672 2.96771 0.916672 5.5C0.916672 8.03229 2.96542 10.0833 5.49771 10.0833C8.03001 10.0833 10.0833 8.03229 10.0833 5.5C10.0833 2.96771 8.03001 0.916664 5.49771 0.916664ZM5.50001 9.16667C3.47417 9.16667 1.83334 7.52583 1.83334 5.5C1.83334 3.47416 3.47417 1.83333 5.50001 1.83333C7.52584 1.83333 9.16667 3.47416 9.16667 5.5C9.16667 7.52583 7.52584 9.16667 5.50001 9.16667ZM5.72917 3.20833H5.04167V5.95833L7.44563 7.40208L7.79167 6.83833L5.72917 5.61458V3.20833Z" fill="#6FC268"/>
</svg>
