<svg width="16" height="16" viewBox="0 0 16 16" fill="none" xmlns="http://www.w3.org/2000/svg">
<g clip-path="url(#clip0)">
<path d="M12.8791 3.7455C12.5786 3.65187 12.5333 3.61544 12.5333 3.46725C12.5333 3.31999 12.6527 3.20059 12.8 3.20059C12.9472 3.20059 13.0666 3.31999 13.0666 3.46725H13.5999C13.5989 3.12936 13.3853 2.82868 13.0666 2.71642V2.40063H12.5333V2.71642C12.2146 2.82868 12.001 3.12936 12 3.46725C12 4.03012 12.451 4.17061 12.7203 4.25458C13.0213 4.34844 13.0666 4.38504 13.0666 4.53386C13.0665 4.68105 12.9472 4.80038 12.8 4.80051C12.6528 4.80038 12.5334 4.68105 12.5333 4.53386H12C12.001 4.87174 12.2146 5.17243 12.5333 5.28466V5.60047H13.0666V5.28469C13.3853 5.17243 13.5989 4.87174 13.5999 4.53386C13.5999 3.97022 13.1486 3.8296 12.8791 3.7455Z" fill="white"/>
<path d="M3.27951 3.7455C2.97899 3.65187 2.93369 3.61544 2.93369 3.46725C2.93369 3.31999 3.05309 3.20059 3.20035 3.20059C3.3476 3.20059 3.467 3.31999 3.467 3.46725H4.0003C3.99927 3.12936 3.78571 2.82868 3.467 2.71642V2.40063H2.93369V2.71642C2.61501 2.82868 2.40142 3.12936 2.40039 3.46725C2.40039 4.03012 2.8514 4.17061 3.12065 4.25458C3.42167 4.34844 3.467 4.38504 3.467 4.53386C3.46686 4.68105 3.34754 4.80038 3.20035 4.80051C3.05315 4.80038 2.93383 4.68105 2.93369 4.53386H2.40039C2.40142 4.87174 2.61501 5.17243 2.93369 5.28466V5.60047H3.467V5.28469C3.78568 5.17243 3.99927 4.87174 4.0003 4.53386C4.0003 3.97022 3.54899 3.8296 3.27951 3.7455Z" fill="white"/>
<path d="M14.3271 6.18395C15.5347 5.34439 15.8331 3.68481 14.9936 2.47718C14.154 1.26954 12.4944 0.971154 11.2868 1.81071C11.2173 1.85901 11.1502 1.91061 11.0856 1.9653C10.4048 0.336154 8.53219 -0.432639 6.90304 0.248159C6.06295 0.599207 5.41242 1.2918 5.1146 2.15219C4.61566 1.62915 3.92413 1.3335 3.2013 1.3342C1.72981 1.333 0.53597 2.52491 0.53477 3.9964C0.53407 4.86822 0.959915 5.68524 1.67501 6.18395C0.717928 6.37821 0.00146485 7.13303 0.00146485 8.03385V15.7335C0.00143152 15.8807 0.120759 16.0001 0.267984 16.0001C0.268018 16.0001 0.268084 16.0001 0.268118 16.0001H15.734C15.8812 16.0001 16.0006 15.8808 16.0006 15.7336C16.0006 15.7336 16.0006 15.7335 16.0006 15.7335V8.03385C16.0006 7.133 15.2841 6.37817 14.3271 6.18395ZM11.3342 3.20077C11.3339 2.97508 11.3097 2.75003 11.262 2.52941C12.0737 1.67415 13.425 1.63882 14.2803 2.45048C15.1355 3.26214 15.1708 4.61343 14.3592 5.46869C13.5475 6.32394 12.1962 6.35927 11.341 5.54762C11.1378 5.35473 10.9745 5.12374 10.8604 4.86782C11.1699 4.36681 11.3339 3.78964 11.3342 3.20077ZM11.2816 6.18665C11.0571 6.23128 10.8406 6.30918 10.6391 6.41774C10.3672 6.21285 10.0594 6.06076 9.73146 5.96939C10.0191 5.80247 10.2792 5.59191 10.5024 5.34526C10.6984 5.67861 10.9642 5.96563 11.2816 6.18665ZM8.13437 0.534244C9.60707 0.534244 10.8009 1.72808 10.8009 3.20077C10.8009 4.67346 9.60707 5.8673 8.13437 5.8673C6.66168 5.8673 5.46785 4.67346 5.46785 3.20077C5.46951 1.72878 6.66238 0.535944 8.13437 0.534244ZM6.44636 5.9141C6.04372 5.98943 5.66404 6.15702 5.33705 6.40377C5.14476 6.30351 4.93931 6.23085 4.72675 6.18795C5.10407 5.9244 5.40622 5.56708 5.60341 5.1512C5.83693 5.45349 6.12238 5.71184 6.44636 5.9141ZM1.06808 4.00073C1.06531 2.82532 2.01593 1.87027 3.19133 1.86751C3.90106 1.86584 4.56489 2.21806 4.96141 2.80669C4.88101 3.41303 4.98174 4.02956 5.25089 4.5788C4.93284 5.71194 3.7564 6.37274 2.62326 6.05469C1.70281 5.79634 1.06708 4.95671 1.06808 4.00073ZM4.26791 15.4668H0.53477V8.03385C0.53477 7.28026 1.26337 6.66726 2.15915 6.66726H4.24341C4.47383 6.66779 4.70215 6.71136 4.91658 6.79575C4.4982 7.27816 4.26788 7.89526 4.26791 8.53383V15.4668ZM11.2009 15.4668H4.80122V8.53383C4.80255 7.35626 5.75687 6.40194 6.93444 6.40061H9.001C10.2154 6.40204 11.1994 7.38612 11.2009 8.60049V15.4668ZM15.4673 15.4668H11.7342V8.60049C11.7341 7.94019 11.4937 7.30249 11.058 6.80642C11.2802 6.71482 11.5183 6.66753 11.7587 6.66726H13.8429C14.7387 6.66726 15.4673 7.28026 15.4673 8.03385V15.4668H15.4673Z" fill="white"/>
<path d="M9.29978 3.73388C9.17881 3.26234 8.75336 2.93296 8.26655 2.93396C7.972 2.93396 7.73324 2.6952 7.73324 2.40065C7.73324 2.1061 7.972 1.86734 8.26655 1.86734C8.56111 1.86734 8.79986 2.1061 8.79986 2.40065H9.33317C9.33174 1.91564 9.00292 1.49279 8.53321 1.3719V1.06738H7.9999V1.3719C7.43049 1.51796 7.0873 2.09793 7.23333 2.66734C7.35429 3.13888 7.77974 3.46826 8.26655 3.46726C8.56111 3.46726 8.79986 3.70602 8.79986 4.00057C8.79986 4.29512 8.56111 4.53387 8.26655 4.53387C7.97216 4.53354 7.73357 4.29495 7.73324 4.00057H7.19993C7.20136 4.48558 7.53018 4.90842 7.9999 5.02932V5.33383H8.53321V5.02932C9.10262 4.88326 9.44584 4.30329 9.29978 3.73388Z" fill="white"/>
</g>
<defs>
<clipPath id="clip0">
<rect width="16" height="16" fill="white"/>
</clipPath>
</defs>
</svg>
