<svg width="16" height="16" viewBox="0 0 16 16" fill="none" xmlns="http://www.w3.org/2000/svg">
<g clip-path="url(#clip0)">
<path d="M12.8791 3.74526C12.5786 3.65163 12.5333 3.6152 12.5333 3.467C12.5333 3.31974 12.6527 3.20035 12.8 3.20035C12.9472 3.20035 13.0666 3.31974 13.0666 3.467H13.5999C13.5989 3.12912 13.3853 2.82844 13.0666 2.71617V2.40039H12.5333V2.71617C12.2146 2.82844 12.001 3.12912 12 3.467C12 4.02988 12.451 4.17037 12.7203 4.25433C13.0213 4.34819 13.0666 4.38479 13.0666 4.53362C13.0665 4.68081 12.9472 4.80014 12.8 4.80027C12.6528 4.80014 12.5334 4.68081 12.5333 4.53362H12C12.001 4.8715 12.2146 5.17218 12.5333 5.28441V5.60023H13.0666V5.28445C13.3853 5.17218 13.5989 4.8715 13.5999 4.53362C13.5999 3.96998 13.1486 3.82935 12.8791 3.74526Z" fill="#5713AE"/>
<path d="M3.27951 3.74526C2.97899 3.65163 2.93369 3.6152 2.93369 3.467C2.93369 3.31974 3.05309 3.20035 3.20035 3.20035C3.3476 3.20035 3.467 3.31974 3.467 3.467H4.0003C3.99927 3.12912 3.78571 2.82844 3.467 2.71617V2.40039H2.93369V2.71617C2.61501 2.82844 2.40142 3.12912 2.40039 3.467C2.40039 4.02988 2.8514 4.17037 3.12065 4.25433C3.42167 4.34819 3.467 4.38479 3.467 4.53362C3.46686 4.68081 3.34754 4.80014 3.20035 4.80027C3.05315 4.80014 2.93383 4.68081 2.93369 4.53362H2.40039C2.40142 4.8715 2.61501 5.17218 2.93369 5.28441V5.60023H3.467V5.28445C3.78568 5.17218 3.99927 4.8715 4.0003 4.53362C4.0003 3.96998 3.54899 3.82935 3.27951 3.74526Z" fill="#5713AE"/>
<path d="M14.3276 6.18383C15.5352 5.34427 15.8336 3.68469 14.994 2.47705C14.1545 1.26942 12.4949 0.971032 11.2873 1.81059C11.2178 1.85889 11.1506 1.91048 11.0861 1.96518C10.4053 0.336032 8.53268 -0.432761 6.90353 0.248036C6.06344 0.599085 5.4129 1.29168 5.11509 2.15207C4.61615 1.62903 3.92462 1.33338 3.20179 1.33408C1.7303 1.33288 0.536459 2.52478 0.535259 3.99628C0.534559 4.8681 0.960403 5.68512 1.6755 6.18383C0.718416 6.37808 0.00195313 7.13291 0.00195313 8.03373V15.7333C0.0019198 15.8806 0.121247 16 0.268473 16C0.268506 16 0.268573 16 0.268606 16H15.7345C15.8817 16 16.0011 15.8807 16.0011 15.7335C16.0011 15.7334 16.0011 15.7334 16.0011 15.7333V8.03373C16.0011 7.13288 15.2846 6.37805 14.3276 6.18383ZM11.3347 3.20065C11.3344 2.97496 11.3102 2.74991 11.2625 2.52928C12.0742 1.67403 13.4255 1.6387 14.2807 2.45036C15.136 3.26201 15.1713 4.61331 14.3597 5.46857C13.548 6.32382 12.1967 6.35915 11.3415 5.54749C11.1382 5.3546 10.9749 5.12362 10.8609 4.8677C11.1703 4.36669 11.3344 3.78952 11.3347 3.20065ZM11.2821 6.18653C11.0576 6.23116 10.8411 6.30906 10.6396 6.41762C10.3677 6.21273 10.0599 6.06063 9.73195 5.96927C10.0196 5.80235 10.2797 5.59179 10.5029 5.34514C10.6989 5.67849 10.9647 5.96551 11.2821 6.18653ZM8.13486 0.534122C9.60755 0.534122 10.8014 1.72796 10.8014 3.20065C10.8014 4.67334 9.60755 5.86718 8.13486 5.86718C6.66217 5.86718 5.46834 4.67334 5.46834 3.20065C5.47 1.72866 6.66287 0.535822 8.13486 0.534122ZM6.44685 5.91398C6.04421 5.98931 5.66453 6.1569 5.33754 6.40365C5.14525 6.30339 4.9398 6.23073 4.72724 6.18783C5.10455 5.92428 5.40671 5.56696 5.6039 5.15108C5.83742 5.45337 6.12287 5.71172 6.44685 5.91398ZM1.06856 4.00061C1.0658 2.8252 2.01641 1.87015 3.19182 1.86739C3.90155 1.86572 4.56538 2.21793 4.96189 2.80657C4.8815 3.41291 4.98223 4.02944 5.25138 4.57868C4.93333 5.71182 3.75689 6.37262 2.62375 6.05457C1.7033 5.79622 1.06756 4.95659 1.06856 4.00061ZM4.2684 15.4667H0.535259V8.03373C0.535259 7.28014 1.26385 6.66714 2.15964 6.66714H4.2439C4.47432 6.66767 4.70264 6.71123 4.91706 6.79563C4.49869 7.27804 4.26836 7.89514 4.2684 8.53371V15.4667ZM11.2014 15.4667H4.8017V8.53371C4.80304 7.35613 5.75735 6.40182 6.93493 6.40048H9.00148C10.2159 6.40192 11.1999 7.386 11.2014 8.60037V15.4667ZM15.4678 15.4667H11.7347V8.60037C11.7346 7.94007 11.4942 7.30237 11.0584 6.8063C11.2807 6.7147 11.5188 6.6674 11.7591 6.66714H13.8434C14.7392 6.66714 15.4678 7.28014 15.4678 8.03373V15.4667H15.4678Z" fill="#5713AE"/>
<path d="M9.30026 3.73388C9.1793 3.26234 8.75385 2.93296 8.26704 2.93396C7.97249 2.93396 7.73373 2.6952 7.73373 2.40065C7.73373 2.1061 7.97249 1.86734 8.26704 1.86734C8.56159 1.86734 8.80035 2.1061 8.80035 2.40065H9.33366C9.33223 1.91564 9.00341 1.49279 8.5337 1.3719V1.06738H8.00038V1.3719C7.43098 1.51796 7.08779 2.09793 7.23382 2.66734C7.35478 3.13888 7.78023 3.46826 8.26704 3.46726C8.56159 3.46726 8.80035 3.70602 8.80035 4.00057C8.80035 4.29512 8.56159 4.53387 8.26704 4.53387C7.97265 4.53354 7.73406 4.29495 7.73373 4.00057H7.20042C7.20185 4.48558 7.53067 4.90842 8.00038 5.02932V5.33383H8.5337V5.02932C9.1031 4.88326 9.44632 4.30329 9.30026 3.73388Z" fill="#5713AE"/>
</g>
<defs>
<clipPath id="clip0">
<rect width="16" height="16" fill="white"/>
</clipPath>
</defs>
</svg>
