<svg width="29" height="28" viewBox="0 0 29 28" fill="none" xmlns="http://www.w3.org/2000/svg">
<g clip-path="url(#clip0)">
<path d="M23.1656 6.73268C22.6455 6.57063 22.5671 6.50758 22.5671 6.25109C22.5671 5.99622 22.7737 5.78958 23.0286 5.78958C23.2835 5.78958 23.4901 5.99622 23.4901 6.25109H24.4131C24.4113 5.66629 24.0417 5.14588 23.4901 4.95158V4.40503H22.5671V4.95158C22.0155 5.14588 21.6458 5.66629 21.644 6.25109C21.644 7.22529 22.4246 7.46845 22.8907 7.61377C23.4116 7.77623 23.4901 7.83957 23.4901 8.09715C23.4899 8.35191 23.2833 8.55844 23.0286 8.55867C22.7738 8.55844 22.5673 8.35191 22.5671 8.09715H21.644C21.6458 8.68195 22.0155 9.20237 22.5671 9.39661V9.94321H23.4901V9.39666C24.0417 9.20236 24.4113 8.68195 24.4131 8.09715C24.4131 7.12162 23.6321 6.87823 23.1656 6.73268Z" fill="white"/>
<path d="M6.55109 6.73268C6.03097 6.57063 5.95257 6.50758 5.95257 6.25109C5.95257 5.99622 6.15921 5.78958 6.41408 5.78958C6.66895 5.78958 6.87559 5.99622 6.87559 6.25109H7.79861C7.79683 5.66629 7.42721 5.14588 6.87559 4.95158V4.40503H5.95257V4.95158C5.401 5.14588 5.03133 5.66629 5.02954 6.25109C5.02954 7.22529 5.81013 7.46845 6.27614 7.61377C6.79713 7.77623 6.87559 7.83957 6.87559 8.09715C6.87536 8.35191 6.66883 8.55844 6.41408 8.55867C6.15932 8.55844 5.9528 8.35191 5.95257 8.09715H5.02954C5.03133 8.68195 5.401 9.20237 5.95257 9.39661V9.94321H6.87559V9.39666C7.42716 9.20236 7.79683 8.68195 7.79861 8.09715C7.79861 7.12162 7.01751 6.87823 6.55109 6.73268Z" fill="white"/>
<path d="M25.6708 10.9529C27.761 9.49982 28.2774 6.62747 26.8243 4.53733C25.3712 2.44719 22.4989 1.93076 20.4087 3.38383C20.2885 3.46743 20.1723 3.55673 20.0605 3.6514C18.8822 0.831716 15.6412 -0.498888 12.8215 0.679416C11.3675 1.287 10.2416 2.48573 9.72612 3.97486C8.86257 3.0696 7.66569 2.5579 6.41464 2.55911C3.86783 2.55703 1.80157 4.61994 1.79949 7.16675C1.79828 8.67567 2.53532 10.0898 3.77299 10.9529C2.1165 11.2891 0.876465 12.5955 0.876465 14.1547V27.4809C0.876407 27.7357 1.08293 27.9423 1.33775 27.9424C1.33781 27.9424 1.33792 27.9424 1.33798 27.9424H28.1058C28.3606 27.9425 28.5673 27.7359 28.5673 27.4811C28.5673 27.4811 28.5673 27.4809 28.5673 27.4809V14.1547C28.5673 12.5955 27.3272 11.2891 25.6708 10.9529ZM20.4908 5.78971C20.4904 5.39909 20.4485 5.00958 20.3659 4.62773C21.7707 3.14748 24.1095 3.08633 25.5898 4.49112C27.07 5.89591 27.1312 8.2347 25.7264 9.71495C24.3216 11.1952 21.9828 11.2563 20.5025 9.85156C20.1508 9.51771 19.8682 9.11792 19.6708 8.67498C20.2064 7.80785 20.4903 6.80891 20.4908 5.78971ZM20.3997 10.9576C20.0113 11.0348 19.6364 11.1696 19.2877 11.3575C18.8172 11.0029 18.2844 10.7397 17.7168 10.5816C18.2148 10.2926 18.6649 9.92823 19.0511 9.50132C19.3904 10.0783 19.8505 10.575 20.3997 10.9576ZM14.9527 1.17456C17.5015 1.17456 19.5678 3.24082 19.5678 5.78971C19.5678 8.3386 17.5015 10.4049 14.9527 10.4049C12.4038 10.4049 10.3375 8.3386 10.3375 5.78971C10.3404 3.24203 12.405 1.17751 14.9527 1.17456ZM12.0311 10.4859C11.3342 10.6162 10.6771 10.9063 10.1111 11.3334C9.77833 11.1598 9.42273 11.0341 9.05485 10.9598C9.70789 10.5037 10.2308 9.88525 10.5721 9.16546C10.9763 9.68864 11.4704 10.1358 12.0311 10.4859ZM2.72252 7.17425C2.71773 5.1399 4.36303 3.48692 6.39739 3.48214C7.62577 3.47925 8.77471 4.08885 9.46098 5.10765C9.32183 6.15707 9.49617 7.22415 9.96201 8.17476C9.41154 10.136 7.3754 11.2797 5.41419 10.7292C3.8211 10.282 2.72079 8.82884 2.72252 7.17425ZM8.2607 27.0194H1.79949V14.1547C1.79949 12.8504 3.06052 11.7894 4.61092 11.7894H8.21829C8.6171 11.7903 9.01227 11.8657 9.38339 12.0118C8.65927 12.8467 8.26064 13.9148 8.2607 15.02V27.0194ZM20.2601 27.0194H9.18372V15.02C9.18603 12.9819 10.8377 11.3302 12.8758 11.3279H16.4526C18.5544 11.3304 20.2576 13.0336 20.2601 15.1354V27.0194ZM27.6443 27.0194H21.1831V15.1354C21.1829 13.9926 20.7669 12.8888 20.0127 12.0303C20.3974 11.8717 20.8094 11.7899 21.2254 11.7894H24.8328C26.3832 11.7894 27.6442 12.8504 27.6442 14.1547V27.0194H27.6443Z" fill="white"/>
<path d="M16.9707 6.71263C16.7613 5.8965 16.025 5.32641 15.1824 5.32814C14.6726 5.32814 14.2594 4.91491 14.2594 4.40511C14.2594 3.89531 14.6726 3.48208 15.1824 3.48208C15.6922 3.48208 16.1054 3.89531 16.1054 4.40511H17.0285C17.026 3.56567 16.4569 2.83382 15.6439 2.62458V2.09753H14.7209V2.62458C13.7354 2.87738 13.1414 3.88117 13.3941 4.86668C13.6035 5.68281 14.3398 6.2529 15.1824 6.25117C15.6922 6.25117 16.1054 6.6644 16.1054 7.1742C16.1054 7.684 15.6922 8.09723 15.1824 8.09723C14.6729 8.09665 14.2599 7.68371 14.2594 7.1742H13.3363C13.3388 8.01364 13.9079 8.74549 14.7209 8.95473V9.48178H15.6439V8.95473C16.6294 8.70193 17.2235 7.69814 16.9707 6.71263Z" fill="white"/>
</g>
<defs>
<clipPath id="clip0">
<rect width="27.6923" height="27.6923" fill="white" transform="translate(0.875 0.25)"/>
</clipPath>
</defs>
</svg>
