<svg width="25" height="28" viewBox="0 0 25 28" fill="none" xmlns="http://www.w3.org/2000/svg">
<path d="M24.4701 17.6732L22.1624 15.3655C22.0759 15.279 21.9585 15.2304 21.8361 15.2304C21.7137 15.2304 21.5964 15.279 21.5098 15.3655L12.2791 24.5963C12.1929 24.6833 12.1445 24.8007 12.1443 24.9231V27.2308C12.1443 27.3532 12.1929 27.4706 12.2795 27.5571C12.366 27.6437 12.4834 27.6923 12.6058 27.6923H14.9135C15.0363 27.6923 15.1535 27.6434 15.2394 27.5566L22.1597 20.6363L22.1624 20.6345L22.1643 20.6317L24.4701 18.3258C24.5567 18.2393 24.6053 18.1219 24.6053 17.9995C24.6053 17.8772 24.5567 17.7598 24.4701 17.6732ZM14.7224 26.7692H13.0674V25.1142L19.5289 18.6526L21.184 20.3077L14.7224 26.7692ZM21.8366 19.6551L20.1815 18L21.8366 16.3449L23.4917 18L21.8366 19.6551Z" fill="white"/>
<path d="M9.8366 26.7692H1.75967C1.57621 26.7687 1.4004 26.6956 1.27067 26.5659C1.14095 26.4362 1.06785 26.2604 1.06736 26.0769V4.38462C1.06736 4.00338 1.37844 3.69231 1.75967 3.69231H4.75967V4.15385C4.75967 4.27625 4.8083 4.39365 4.89485 4.4802C4.98141 4.56676 5.0988 4.61538 5.22121 4.61538H15.3751C15.4975 4.61538 15.6149 4.56676 15.7014 4.4802C15.788 4.39365 15.8366 4.27625 15.8366 4.15385V3.69231H18.8366C19.2178 3.69231 19.5289 4.00338 19.5289 4.38462V14.3077C19.5289 14.4301 19.5775 14.5475 19.6641 14.634C19.7506 14.7206 19.868 14.7692 19.9904 14.7692C20.1129 14.7692 20.2302 14.7206 20.3168 14.634C20.4034 14.5475 20.452 14.4301 20.452 14.3077V4.38462C20.452 3.49385 19.7274 2.76923 18.8366 2.76923H15.7904C15.6834 2.2483 15.4 1.78022 14.988 1.44392C14.5761 1.10762 14.0607 0.923662 13.5289 0.923077H11.8914C11.5646 0.360923 10.96 0 10.2981 0C9.63629 0 9.03167 0.360923 8.7049 0.923077H7.06736C5.95229 0.923077 5.0209 1.71692 4.80583 2.76923H1.75967C0.868903 2.76923 0.144287 3.49385 0.144287 4.38462V26.0769C0.144287 26.9677 0.868903 27.6923 1.75967 27.6923H9.8366C9.959 27.6923 10.0764 27.6437 10.163 27.5571C10.2495 27.4706 10.2981 27.3532 10.2981 27.2308C10.2981 27.1084 10.2495 26.991 10.163 26.9044C10.0764 26.8179 9.959 26.7692 9.8366 26.7692ZM7.06736 1.84615H8.99752C9.09278 1.8463 9.18575 1.81691 9.26361 1.76202C9.34147 1.70714 9.40041 1.62946 9.43229 1.53969C9.56429 1.17138 9.91229 0.923077 10.2981 0.923077C10.684 0.923077 11.032 1.17138 11.1631 1.53969C11.1951 1.62939 11.254 1.70699 11.3319 1.76186C11.4097 1.81672 11.5026 1.84617 11.5978 1.84615H13.5289C14.2923 1.84615 14.9135 2.46738 14.9135 3.23077V3.69231H5.68275V3.23077C5.68275 2.46738 6.30398 1.84615 7.06736 1.84615Z" fill="white"/>
</svg>
