<svg width="16" height="16" viewBox="0 0 16 16" fill="none" xmlns="http://www.w3.org/2000/svg">
<path d="M14.9878 10.2112L13.6545 8.87788C13.6045 8.82789 13.5367 8.7998 13.4659 8.7998C13.3952 8.7998 13.3274 8.82789 13.2774 8.87788L7.94408 14.2112C7.89429 14.2615 7.86632 14.3293 7.86621 14.4V15.7333C7.86621 15.8041 7.89431 15.8719 7.94432 15.9219C7.99433 15.9719 8.06215 16 8.13288 16H9.46621C9.53714 16 9.60488 15.9717 9.65448 15.9216L13.6529 11.9232L13.6545 11.9221L13.6555 11.9205L14.9878 10.5883C15.0378 10.5383 15.0659 10.4705 15.0659 10.3997C15.0659 10.329 15.0378 10.2612 14.9878 10.2112ZM9.35581 15.4667H8.39954V14.5104L12.1329 10.7771L13.0891 11.7333L9.35581 15.4667ZM13.4662 11.3563L12.5099 10.4L13.4662 9.44375L14.4225 10.4L13.4662 11.3563Z" fill="white"/>
<path d="M6.53311 15.4667H1.86644C1.76044 15.4664 1.65886 15.4242 1.58391 15.3492C1.50895 15.2742 1.46672 15.1727 1.46644 15.0667V2.53333C1.46644 2.31307 1.64617 2.13333 1.86644 2.13333H3.59977V2.4C3.59977 2.47072 3.62787 2.53855 3.67788 2.58856C3.72789 2.63857 3.79571 2.66667 3.86644 2.66667H9.73311C9.80383 2.66667 9.87166 2.63857 9.92167 2.58856C9.97168 2.53855 9.99977 2.47072 9.99977 2.4V2.13333H11.7331C11.9534 2.13333 12.1331 2.31307 12.1331 2.53333V8.26667C12.1331 8.33739 12.1612 8.40522 12.2112 8.45523C12.2612 8.50524 12.329 8.53333 12.3998 8.53333C12.4705 8.53333 12.5383 8.50524 12.5883 8.45523C12.6383 8.40522 12.6664 8.33739 12.6664 8.26667V2.53333C12.6664 2.01867 12.2478 1.6 11.7331 1.6H9.97311C9.91126 1.29902 9.74752 1.02857 9.50949 0.834265C9.27146 0.639956 8.97371 0.533671 8.66644 0.533333H7.72031C7.53151 0.208533 7.18217 0 6.79977 0C6.41737 0 6.06804 0.208533 5.87924 0.533333H4.93311C4.28884 0.533333 3.75071 0.992 3.62644 1.6H1.86644C1.35177 1.6 0.933105 2.01867 0.933105 2.53333V15.0667C0.933105 15.5813 1.35177 16 1.86644 16H6.53311C6.60383 16 6.67166 15.9719 6.72167 15.9219C6.77168 15.8719 6.79977 15.8041 6.79977 15.7333C6.79977 15.6626 6.77168 15.5948 6.72167 15.5448C6.67166 15.4948 6.60383 15.4667 6.53311 15.4667ZM4.93311 1.06667H6.04831C6.10335 1.06675 6.15706 1.04977 6.20205 1.01806C6.24704 0.986347 6.28109 0.941467 6.29951 0.8896C6.37577 0.6768 6.57684 0.533333 6.79977 0.533333C7.02271 0.533333 7.22377 0.6768 7.29951 0.8896C7.31799 0.941424 7.35206 0.98626 7.39703 1.01796C7.44201 1.04966 7.49568 1.06667 7.55071 1.06667H8.66644C9.10751 1.06667 9.46644 1.4256 9.46644 1.86667V2.13333H4.13311V1.86667C4.13311 1.4256 4.49204 1.06667 4.93311 1.06667Z" fill="white"/>
</svg>
