<svg width="16" height="16" viewBox="0 0 16 16" fill="none" xmlns="http://www.w3.org/2000/svg">
<path d="M14.9888 10.2112L13.6555 8.87788C13.6054 8.82789 13.5376 8.7998 13.4669 8.7998C13.3962 8.7998 13.3284 8.82789 13.2784 8.87788L7.94505 14.2112C7.89527 14.2615 7.86729 14.3293 7.86719 14.4V15.7333C7.86719 15.8041 7.89528 15.8719 7.94529 15.9219C7.9953 15.9719 8.06313 16 8.13385 16H9.46719C9.53812 16 9.60585 15.9717 9.65545 15.9216L13.6539 11.9232L13.6555 11.9221L13.6565 11.9205L14.9888 10.5883C15.0388 10.5383 15.0669 10.4705 15.0669 10.3997C15.0669 10.329 15.0388 10.2612 14.9888 10.2112ZM9.35679 15.4667H8.40052V14.5104L12.1339 10.7771L13.0901 11.7333L9.35679 15.4667ZM13.4672 11.3563L12.5109 10.4L13.4672 9.44375L14.4235 10.4L13.4672 11.3563Z" fill="#5713AE"/>
<path d="M6.53359 15.4667H1.86693C1.76093 15.4664 1.65935 15.4242 1.5844 15.3492C1.50944 15.2742 1.46721 15.1727 1.46693 15.0667V2.53333C1.46693 2.31307 1.64666 2.13333 1.86693 2.13333H3.60026V2.4C3.60026 2.47072 3.62836 2.53855 3.67837 2.58856C3.72838 2.63857 3.7962 2.66667 3.86693 2.66667H9.73359C9.80432 2.66667 9.87215 2.63857 9.92216 2.58856C9.97217 2.53855 10.0003 2.47072 10.0003 2.4V2.13333H11.7336C11.9539 2.13333 12.1336 2.31307 12.1336 2.53333V8.26667C12.1336 8.33739 12.1617 8.40522 12.2117 8.45523C12.2617 8.50524 12.3295 8.53333 12.4003 8.53333C12.471 8.53333 12.5388 8.50524 12.5888 8.45523C12.6388 8.40522 12.6669 8.33739 12.6669 8.26667V2.53333C12.6669 2.01867 12.2483 1.6 11.7336 1.6H9.97359C9.91175 1.29902 9.748 1.02857 9.50998 0.834265C9.27195 0.639956 8.9742 0.533671 8.66693 0.533333H7.72079C7.53199 0.208533 7.18266 0 6.80026 0C6.41786 0 6.06853 0.208533 5.87973 0.533333H4.93359C4.28933 0.533333 3.75119 0.992 3.62693 1.6H1.86693C1.35226 1.6 0.933594 2.01867 0.933594 2.53333V15.0667C0.933594 15.5813 1.35226 16 1.86693 16H6.53359C6.60432 16 6.67215 15.9719 6.72216 15.9219C6.77217 15.8719 6.80026 15.8041 6.80026 15.7333C6.80026 15.6626 6.77217 15.5948 6.72216 15.5448C6.67215 15.4948 6.60432 15.4667 6.53359 15.4667ZM4.93359 1.06667H6.04879C6.10383 1.06675 6.15755 1.04977 6.20254 1.01806C6.24752 0.986347 6.28157 0.941467 6.29999 0.8896C6.37626 0.6768 6.57733 0.533333 6.80026 0.533333C7.02319 0.533333 7.22426 0.6768 7.29999 0.8896C7.31848 0.941424 7.35255 0.98626 7.39752 1.01796C7.44249 1.04966 7.49617 1.06667 7.55119 1.06667H8.66693C9.10799 1.06667 9.46693 1.4256 9.46693 1.86667V2.13333H4.13359V1.86667C4.13359 1.4256 4.49253 1.06667 4.93359 1.06667Z" fill="#5713AE"/>
</svg>
