<svg width="29" height="29" viewBox="0 0 29 29" fill="none" xmlns="http://www.w3.org/2000/svg">
<g clip-path="url(#clip0)">
<path d="M28.0289 26.4905V8.49048H22.4904V26.4905H21.1058V12.1828H15.5673V26.4905H14.1827V15.8751H8.64425V26.4905H7.25963V20.0289H1.72117V26.4905H1.25963C1.00486 26.4905 0.798096 26.6968 0.798096 26.952C0.798096 27.2072 1.00486 27.4136 1.25963 27.4136H1.72117H7.25963H8.64425H14.1827H15.5673H21.1058H22.4904H28.0289C28.2836 27.4136 28.4904 27.2072 28.4904 26.952C28.4904 26.6968 28.2836 26.4905 28.0289 26.4905ZM2.64425 26.4905V20.952H6.33656V26.4905H2.64425ZM9.56733 26.4905V16.7982H13.2596V26.4905H9.56733ZM16.4904 26.4905V13.1059H20.1827V26.4905H16.4904ZM23.4135 26.4905V9.41356H27.1058V26.4905H23.4135Z" fill="white"/>
<path d="M4.5041 13.7197C4.5821 13.7197 4.66195 13.6998 4.73441 13.6578L21.4739 3.99319L20.4263 6.29627C20.3206 6.52842 20.423 6.80211 20.6552 6.90735C20.717 6.93596 20.7821 6.94888 20.8463 6.94888C21.0216 6.94888 21.1892 6.84827 21.2667 6.67842L22.9107 3.06458C22.9158 3.05304 22.9149 3.04058 22.919 3.02858C22.9278 3.00411 22.9347 2.98058 22.9393 2.95473C22.9416 2.94181 22.949 2.93119 22.9499 2.91781C22.9504 2.91227 22.9481 2.90765 22.9486 2.90212C22.9495 2.88458 22.9476 2.86842 22.9467 2.85088C22.9453 2.8255 22.9412 2.8015 22.9356 2.77612C22.9319 2.75858 22.931 2.74058 22.925 2.7235C22.9195 2.70688 22.9098 2.69304 22.9024 2.67688C22.8964 2.66627 22.8964 2.65381 22.8899 2.64273C22.8835 2.63165 22.8724 2.62519 22.865 2.61458C22.8553 2.60027 22.8479 2.58504 22.8364 2.57212C22.8244 2.55827 22.8092 2.54858 22.7953 2.53612C22.7764 2.51904 22.7575 2.50335 22.7363 2.4895C22.7219 2.48027 22.709 2.47012 22.6933 2.46227C22.6883 2.45996 22.6855 2.45535 22.6804 2.45304C22.6689 2.44796 22.6564 2.44888 22.6449 2.44473C22.6195 2.4355 22.5946 2.42904 22.5683 2.42442C22.5563 2.42212 22.5466 2.41519 22.5341 2.41427L18.5824 2.03119C18.3263 2.00535 18.1029 2.19273 18.0784 2.44565C18.0535 2.6995 18.2395 2.92519 18.4929 2.94965L21.011 3.19381L4.27287 12.8584C4.05179 12.9858 3.97656 13.2683 4.10395 13.4889C4.18933 13.637 4.34441 13.7197 4.5041 13.7197Z" fill="white"/>
</g>
<defs>
<clipPath id="clip0">
<rect width="27.6923" height="27.6923" fill="white" transform="translate(0.798096 0.875)"/>
</clipPath>
</defs>
</svg>
