<svg width="16" height="16" viewBox="0 0 16 16" fill="none" xmlns="http://www.w3.org/2000/svg">
<path d="M15.7333 14.8V4.40002H12.5333V14.8H11.7333V6.53336H8.53333V14.8H7.73333V8.66669H4.53333V14.8H3.73333V11.0667H0.533333V14.8H0.266667C0.119467 14.8 0 14.9192 0 15.0667C0 15.2142 0.119467 15.3334 0.266667 15.3334H0.533333H3.73333H4.53333H7.73333H8.53333H11.7333H12.5333H15.7333C15.8805 15.3334 16 15.2142 16 15.0667C16 14.9192 15.8805 14.8 15.7333 14.8ZM1.06667 14.8V11.6H3.2V14.8H1.06667ZM5.06667 14.8V9.20002H7.2V14.8H5.06667ZM9.06667 14.8V7.06669H11.2V14.8H9.06667ZM13.0667 14.8V4.93336H15.2V14.8H13.0667Z" fill="white"/>
<path d="M2.14151 7.42134C2.18658 7.42134 2.23271 7.40987 2.27458 7.3856L11.9463 1.8016L11.341 3.13227C11.2799 3.2664 11.3391 3.42454 11.4732 3.48534C11.509 3.50187 11.5466 3.50934 11.5836 3.50934C11.685 3.50934 11.7818 3.4512 11.8266 3.35307L12.7764 1.26507C12.7794 1.2584 12.7788 1.2512 12.7812 1.24427C12.7863 1.23014 12.7903 1.21654 12.793 1.2016C12.7943 1.19414 12.7986 1.188 12.7991 1.18027C12.7994 1.17707 12.798 1.1744 12.7983 1.1712C12.7988 1.16107 12.7978 1.15174 12.7972 1.1416C12.7964 1.12694 12.794 1.11307 12.7908 1.0984C12.7887 1.08827 12.7882 1.07787 12.7847 1.068C12.7815 1.0584 12.7759 1.0504 12.7716 1.04107C12.7682 1.03494 12.7682 1.02774 12.7644 1.02134C12.7607 1.01494 12.7543 1.0112 12.75 1.00507C12.7444 0.996803 12.7402 0.988003 12.7335 0.980536C12.7266 0.972536 12.7178 0.966936 12.7098 0.959736C12.6988 0.94987 12.6879 0.940803 12.6756 0.932803C12.6674 0.92747 12.6599 0.921603 12.6508 0.91707C12.6479 0.915736 12.6463 0.91307 12.6434 0.911736C12.6367 0.908803 12.6295 0.909336 12.6228 0.906936C12.6082 0.901603 12.5938 0.89787 12.5786 0.895203C12.5716 0.89387 12.566 0.88987 12.5588 0.889336L10.2756 0.668003C10.1276 0.65307 9.99857 0.761337 9.98444 0.90747C9.97004 1.05414 10.0775 1.18454 10.2239 1.19867L11.6788 1.33974L2.00791 6.92374C1.88018 6.99734 1.83671 7.16054 1.91031 7.288C1.95964 7.3736 2.04924 7.42134 2.14151 7.42134Z" fill="white"/>
</svg>
