<svg width="16" height="16" viewBox="0 0 16 16" fill="none" xmlns="http://www.w3.org/2000/svg">
<path d="M15.7333 14.8004V4.40039H12.5333V14.8004H11.7333V6.53372H8.53333V14.8004H7.73333V8.66706H4.53333V14.8004H3.73333V11.0671H0.533333V14.8004H0.266667C0.119467 14.8004 0 14.9196 0 15.0671C0 15.2145 0.119467 15.3337 0.266667 15.3337H0.533333H3.73333H4.53333H7.73333H8.53333H11.7333H12.5333H15.7333C15.8805 15.3337 16 15.2145 16 15.0671C16 14.9196 15.8805 14.8004 15.7333 14.8004ZM1.06667 14.8004V11.6004H3.2V14.8004H1.06667ZM5.06667 14.8004V9.20039H7.2V14.8004H5.06667ZM9.06667 14.8004V7.06706H11.2V14.8004H9.06667ZM13.0667 14.8004V4.93372H15.2V14.8004H13.0667Z" fill="#5713AE"/>
<path d="M2.14102 7.4217C2.18609 7.4217 2.23222 7.41024 2.27409 7.38597L11.9458 1.80197L11.3405 3.13264C11.2794 3.26677 11.3386 3.4249 11.4728 3.4857C11.5085 3.50224 11.5461 3.5097 11.5832 3.5097C11.6845 3.5097 11.7813 3.45157 11.8261 3.35344L12.776 1.26544C12.7789 1.25877 12.7784 1.25157 12.7808 1.24464C12.7858 1.2305 12.7898 1.2169 12.7925 1.20197C12.7938 1.1945 12.7981 1.18837 12.7986 1.18064C12.7989 1.17744 12.7976 1.17477 12.7978 1.17157C12.7984 1.16144 12.7973 1.1521 12.7968 1.14197C12.796 1.1273 12.7936 1.11344 12.7904 1.09877C12.7882 1.08864 12.7877 1.07824 12.7842 1.06837C12.781 1.05877 12.7754 1.05077 12.7712 1.04144C12.7677 1.0353 12.7677 1.0281 12.764 1.0217C12.7602 1.0153 12.7538 1.01157 12.7496 1.00544C12.744 0.997169 12.7397 0.988369 12.733 0.980903C12.7261 0.972903 12.7173 0.967303 12.7093 0.960103C12.6984 0.950236 12.6874 0.941169 12.6752 0.933169C12.6669 0.927836 12.6594 0.921969 12.6504 0.917436C12.6474 0.916103 12.6458 0.913436 12.6429 0.912103C12.6362 0.909169 12.629 0.909703 12.6224 0.907303C12.6077 0.901969 12.5933 0.898236 12.5781 0.895569C12.5712 0.894236 12.5656 0.890236 12.5584 0.889703L10.2752 0.668369C10.1272 0.653436 9.99809 0.761703 9.98395 0.907836C9.96955 1.0545 10.077 1.1849 10.2234 1.19904L11.6784 1.3401L2.00742 6.9241C1.87969 6.9977 1.83622 7.1609 1.90982 7.28837C1.95915 7.37397 2.04875 7.4217 2.14102 7.4217Z" fill="#5713AE"/>
</svg>
