<svg width="15" height="15" viewBox="0 0 15 15" fill="none" xmlns="http://www.w3.org/2000/svg">
<path fill-rule="evenodd" clip-rule="evenodd" d="M14.8793 8.66669C14.8487 8.694 14.813 8.71498 14.7742 8.72842C14.7354 8.74186 14.6944 8.74749 14.6534 8.74498C14.6125 8.74247 14.5724 8.73189 14.5356 8.71382C14.4987 8.69576 14.4659 8.67058 14.4388 8.63974L13.737 7.84392V14.3747C13.737 14.5403 13.6714 14.6992 13.5544 14.8164C13.4375 14.9337 13.2788 14.9997 13.1131 15.0001H9.99409C9.82853 14.9996 9.6699 14.9336 9.553 14.8163C9.43611 14.6991 9.37051 14.5402 9.37059 14.3747V9.6834L5.30657 9.67306V14.3728C5.30657 14.7178 5.03618 15.0001 4.69216 15.0001H1.88516C1.54114 15.0001 1.23346 14.7178 1.23346 14.3728V7.87557L0.559522 8.63974C0.532304 8.67042 0.499311 8.69543 0.462427 8.71335C0.425543 8.73128 0.38549 8.74176 0.344555 8.7442C0.303619 8.74665 0.262603 8.741 0.223849 8.7276C0.185094 8.71419 0.14936 8.69328 0.118686 8.66606C0.0880124 8.63884 0.0629999 8.60585 0.0450768 8.56897C0.0271536 8.53208 0.0166708 8.49203 0.0142269 8.4511C0.011783 8.41016 0.0174259 8.36914 0.0308333 8.33039C0.0442407 8.29163 0.0651501 8.2559 0.0923677 8.22523L7.26542 0.0937385C7.38417 -0.0403607 7.61414 -0.0403607 7.73289 0.0937385L13.6395 6.78961C13.6445 6.79431 13.6483 6.79964 13.653 6.80465L14.9063 8.22523C14.961 8.28744 14.9889 8.3688 14.9838 8.45152C14.9788 8.53424 14.9412 8.61159 14.8793 8.66669ZM7.49916 0.773007L1.8601 7.16528V14.3728L4.69216 14.3747V9.6834C4.69216 9.33844 4.97195 9.05802 5.31597 9.05802H9.37059C9.71461 9.05802 9.99409 9.33844 9.99409 9.6834V14.3747L13.1395 14.3728V7.16653L7.49916 0.773007Z" fill="#5713AE"/>
</svg>
