<svg width="28" height="26" viewBox="0 0 28 26" fill="none" xmlns="http://www.w3.org/2000/svg">
<path fill-rule="evenodd" clip-rule="evenodd" d="M27.391 14.7364C27.3362 14.7828 27.2724 14.8185 27.2031 14.8414C27.1338 14.8642 27.0604 14.8738 26.9872 14.8695C26.914 14.8652 26.8424 14.8472 26.7766 14.8165C26.7107 14.7858 26.6519 14.743 26.6036 14.6906L25.3491 13.3375V24.4412C25.3493 24.7228 25.2319 24.9929 25.0229 25.1923C24.8138 25.3916 24.5301 25.5039 24.2341 25.5045H18.6591C18.3632 25.5038 18.0796 25.3914 17.8707 25.1921C17.6618 24.9927 17.5445 24.7227 17.5447 24.4412V16.465L10.2806 16.4474V24.438C10.2806 25.0245 9.79731 25.5045 9.18241 25.5045H4.16517C3.55027 25.5045 3.00033 25.0245 3.00033 24.438V13.3913L1.79572 14.6906C1.74707 14.7427 1.6881 14.7853 1.62218 14.8157C1.55625 14.8462 1.48466 14.864 1.41149 14.8682C1.33832 14.8723 1.26501 14.8627 1.19574 14.84C1.12647 14.8172 1.0626 14.7816 1.00777 14.7353C0.952945 14.6891 0.908237 14.633 0.876202 14.5702C0.844166 14.5075 0.825429 14.4394 0.82106 14.3698C0.816692 14.3002 0.826778 14.2305 0.850743 14.1646C0.874707 14.0987 0.912081 14.038 0.960729 13.9858L13.7819 0.160561C13.9941 -0.0674363 14.4052 -0.0674363 14.6174 0.160561L25.1749 11.545C25.1839 11.553 25.1906 11.562 25.199 11.5705L27.4391 13.9858C27.537 14.0916 27.5868 14.2299 27.5778 14.3706C27.5688 14.5112 27.5016 14.6427 27.391 14.7364ZM14.1996 1.31546L4.12037 12.1837V24.438L9.18241 24.4412V16.465C9.18241 15.8785 9.68251 15.4017 10.2974 15.4017H17.5447C18.1596 15.4017 18.6591 15.8785 18.6591 16.465V24.4412L24.2812 24.438V12.1858L14.1996 1.31546Z" fill="white"/>
</svg>
