<svg width="15" height="15" viewBox="0 0 15 15" fill="none" xmlns="http://www.w3.org/2000/svg">
<g clip-path="url(#clip0)">
<path fill-rule="evenodd" clip-rule="evenodd" d="M14.8793 8.66718C14.8487 8.69449 14.813 8.71547 14.7742 8.72891C14.7354 8.74234 14.6944 8.74797 14.6534 8.74547C14.6125 8.74296 14.5724 8.73237 14.5356 8.71431C14.4987 8.69625 14.4659 8.67107 14.4388 8.64023L13.737 7.84441V14.3752C13.737 14.5408 13.6714 14.6997 13.5544 14.8169C13.4375 14.9342 13.2788 15.0002 13.1131 15.0005H9.99409C9.82853 15.0001 9.6699 14.934 9.553 14.8168C9.43611 14.6996 9.37051 14.5407 9.37059 14.3752V9.68389L5.30657 9.67355V14.3733C5.30657 14.7182 5.03618 15.0005 4.69216 15.0005H1.88516C1.54114 15.0005 1.23346 14.7182 1.23346 14.3733V7.87605L0.559522 8.64023C0.532304 8.67091 0.499311 8.69592 0.462427 8.71384C0.425543 8.73176 0.38549 8.74225 0.344555 8.74469C0.303619 8.74714 0.262603 8.74149 0.223849 8.72808C0.185094 8.71468 0.14936 8.69377 0.118686 8.66655C0.0880124 8.63933 0.0629999 8.60634 0.0450768 8.56946C0.0271536 8.53257 0.0166708 8.49252 0.0142269 8.45158C0.011783 8.41065 0.0174259 8.36963 0.0308333 8.33088C0.0442407 8.29212 0.0651501 8.25639 0.0923677 8.22571L7.26542 0.0942268C7.38417 -0.0398725 7.61414 -0.0398725 7.73289 0.0942268L13.6395 6.7901C13.6445 6.7948 13.6483 6.80013 13.653 6.80514L14.9063 8.22571C14.961 8.28793 14.9889 8.36929 14.9838 8.452C14.9788 8.53472 14.9412 8.61208 14.8793 8.66718ZM7.49916 0.773496L1.8601 7.16577V14.3733L4.69216 14.3752V9.68389C4.69216 9.33893 4.97195 9.05851 5.31597 9.05851H9.37059C9.71461 9.05851 9.99409 9.33893 9.99409 9.68389V14.3752L13.1395 14.3733V7.16702L7.49916 0.773496Z" fill="white"/>
</g>
<defs>
<clipPath id="clip0">
<rect width="15" height="15" fill="white"/>
</clipPath>
</defs>
</svg>
