<svg width="296" height="269" viewBox="0 0 296 269" fill="none" xmlns="http://www.w3.org/2000/svg">
<path d="M33.3984 139.558C30.4199 142.536 26.8311 144.025 22.6318 144.025C18.4326 144.025 14.8438 142.536 11.8652 139.558C8.88672 136.579 7.39746 132.99 7.39746 128.791C7.39746 124.592 8.88672 121.003 11.8652 118.024C14.8438 115.046 18.4326 113.557 22.6318 113.557C26.8311 113.557 30.4199 115.046 33.3984 118.024C36.377 121.003 37.8662 124.592 37.8662 128.791C37.8662 132.99 36.377 136.579 33.3984 139.558Z" fill="black"/>
<path d="M172.192 143H145.093V81.7695H144.507L120.703 141.755H104.077L80.2734 81.7695H79.6875V143H52.5879V37.3115H88.4766L112.134 98.9814H112.72L136.304 37.3115H172.192V143ZM198.706 50.2021C208.276 40.3877 221.24 35.4805 237.598 35.4805C253.955 35.4805 266.919 40.3877 276.489 50.2021C286.06 60.0166 290.845 73.3467 290.845 90.1924C290.845 107.038 286.06 120.368 276.489 130.183C266.919 139.948 253.955 144.831 237.598 144.831C221.191 144.831 208.203 139.948 198.633 130.183C189.111 120.368 184.351 107.038 184.351 90.1924C184.351 73.3467 189.136 60.0166 198.706 50.2021ZM253.271 68.3662C249.316 62.9463 244.092 60.2363 237.598 60.2363C231.104 60.2363 225.879 62.9463 221.924 68.3662C217.969 73.7861 215.991 81.0615 215.991 90.1924C215.991 99.2744 217.944 106.525 221.851 111.945C225.806 117.365 231.055 120.075 237.598 120.075C244.141 120.075 249.365 117.365 253.271 111.945C257.227 106.525 259.204 99.2744 259.204 90.1924C259.204 81.0615 257.227 73.7861 253.271 68.3662Z" fill="white"/>
<path d="M85.2363 240.221C73.5583 240.221 64.2402 236.07 57.2822 227.77C50.3242 219.469 46.8452 208.32 46.8452 194.322C46.8452 180.61 50.2835 169.745 57.1602 161.729C64.0775 153.714 73.4362 149.706 85.2363 149.706C93.9847 149.706 101.655 152.574 108.247 158.312C114.838 164.008 118.521 170.986 119.294 179.247H116.303C115.489 171.76 112.092 165.453 106.11 160.326C100.129 155.158 93.1709 152.574 85.2363 152.574C74.4128 152.574 65.8068 156.338 59.4185 163.866C53.0708 171.353 49.897 181.505 49.897 194.322C49.897 207.506 53.0911 217.984 59.4795 225.755C65.9085 233.486 74.4941 237.352 85.2363 237.352C93.4964 237.352 100.556 235.012 106.416 230.333C112.275 225.654 115.571 219.591 116.303 212.145H119.294C118.846 217.597 117.076 222.459 113.984 226.732C110.932 231.004 106.883 234.321 101.838 236.681C96.833 239.041 91.2992 240.221 85.2363 240.221ZM133.21 153.795V197.74H157.38C165.233 197.74 171.418 195.787 175.935 191.881C180.451 187.934 182.709 182.563 182.709 175.768C182.709 168.85 180.451 163.459 175.935 159.593C171.459 155.728 165.274 153.795 157.38 153.795H133.21ZM133.21 200.548V239H130.158V150.926H157.441C166.23 150.926 173.147 153.144 178.193 157.579C183.238 161.974 185.761 168.036 185.761 175.768C185.761 182.197 183.889 187.547 180.146 191.82C176.403 196.092 171.215 198.798 164.582 199.938L187.897 239H184.357L161.408 200.426C160.025 200.507 158.682 200.548 157.38 200.548H133.21ZM279.755 239H276.765V157.945H276.521L240.876 238.939H237.641L201.997 157.945H201.752V239H198.762V150.926H201.997L239.167 235.155H239.411L276.398 150.926H279.755V239Z" fill="white"/>
</svg>
