<svg width="117" height="23" viewBox="0 0 117 23" fill="none" xmlns="http://www.w3.org/2000/svg">
<path d="M5.49121 20.6782C4.90222 21.2654 4.19254 21.5589 3.36215 21.5589C2.53177 21.5589 1.82209 21.2654 1.2331 20.6782C0.644105 20.091 0.349609 19.3835 0.349609 18.5556C0.349609 17.7278 0.644105 17.0204 1.2331 16.4331C1.82209 15.8459 2.53177 15.5523 3.36215 15.5523C4.19254 15.5523 4.90222 15.8459 5.49121 16.4331C6.0802 17.0204 6.37469 17.7278 6.37469 18.5556C6.37469 19.3835 6.0802 20.091 5.49121 20.6782ZM32.9372 21.3569H27.5784V9.28571H27.4624L22.7554 21.1114H19.4677L14.7606 9.28571H14.6447V21.3569H9.28586V0.521136H16.3827L21.0609 12.6789H21.1767L25.8404 0.521136H32.9372V21.3569ZM38.1801 3.06243C40.0727 1.12758 42.6362 0.160156 45.8708 0.160156C49.1055 0.160156 51.6691 1.12758 53.5615 3.06243C55.4541 4.99728 56.4003 7.62521 56.4003 10.9462C56.4003 14.2672 55.4541 16.8952 53.5615 18.83C51.6691 20.7552 49.1055 21.7178 45.8708 21.7178C42.6266 21.7178 40.0582 20.7552 38.1658 18.83C36.2829 16.8952 35.3415 14.2672 35.3415 10.9462C35.3415 7.62521 36.2877 4.99728 38.1801 3.06243ZM48.9703 6.64335C48.1882 5.57484 47.155 5.0406 45.8708 5.0406C44.5866 5.0406 43.5536 5.57484 42.7715 6.64335C41.9894 7.71185 41.5983 9.14613 41.5983 10.9462C41.5983 12.7367 41.9844 14.1662 42.757 15.2347C43.5391 16.3032 44.5771 16.8374 45.8708 16.8374C47.1647 16.8374 48.1978 16.3032 48.9703 15.2347C49.7524 14.1662 50.1435 12.7367 50.1435 10.9462C50.1435 9.14613 49.7524 7.71185 48.9703 6.64335ZM61.1219 3.06243C63.0145 1.12758 65.5779 0.160156 68.8125 0.160156C72.0472 0.160156 74.6108 1.12758 76.5032 3.06243C78.3957 4.99728 79.342 7.62521 79.342 10.9462C79.342 14.2672 78.3957 16.8952 76.5032 18.83C74.6108 20.7552 72.0472 21.7178 68.8125 21.7178C65.5684 21.7178 63 20.7552 61.1074 18.83C59.2246 16.8952 58.2832 14.2672 58.2832 10.9462C58.2832 7.62521 59.2294 4.99728 61.1219 3.06243ZM71.9121 6.64335C71.13 5.57484 70.0967 5.0406 68.8125 5.0406C67.5284 5.0406 66.4953 5.57484 65.7132 6.64335C64.9309 7.71185 64.5399 9.14613 64.5399 10.9462C64.5399 12.7367 64.9262 14.1662 65.6987 15.2347C66.4808 16.3032 67.5188 16.8374 68.8125 16.8374C70.1065 16.8374 71.1395 16.3032 71.9121 15.2347C72.6941 14.1662 73.0852 12.7367 73.0852 10.9462C73.0852 9.14613 72.6941 7.71185 71.9121 6.64335ZM87.8727 5.0406V10.3253H90.4073C91.2667 10.3253 91.9425 10.0847 92.435 9.60337C92.9371 9.12206 93.1881 8.48675 93.1881 7.69741C93.1881 6.91769 92.9322 6.28237 92.4205 5.79143C91.9087 5.29087 91.2424 5.0406 90.4218 5.0406H87.8727ZM87.8727 14.3683V21.3569H81.7318V0.521136H91.0155C93.777 0.521136 95.8723 1.13721 97.3014 2.36935C98.74 3.60149 99.4595 5.34382 99.4595 7.59633C99.4595 8.85735 99.16 10.0221 98.5614 11.0906C97.9724 12.1591 97.1468 12.9485 96.0847 13.4586L100.053 21.3569H93.1881L89.8859 14.3683H87.8727ZM116.695 16.4909V21.3569H101.951V0.521136H116.695V5.38714H108.092V8.75147H116.159V13.141H108.092V16.4909H116.695Z" fill="#772FD2"/>
</svg>
