<svg width="29" height="28" viewBox="0 0 29 28" fill="none" xmlns="http://www.w3.org/2000/svg">
<g clip-path="url(#clip0)">
<path d="M12.3557 10.2788H9.31602L6.68202 7.64481C6.59548 7.55827 6.47814 7.50958 6.35571 7.50958H0.817251C0.562367 7.50958 0.355713 7.71624 0.355713 7.97112V17.6634C0.357213 18.9373 1.38956 19.9696 2.66341 19.9711H5.43264C5.68752 19.9711 5.89417 20.1778 5.89417 20.4327V25.5096C5.89417 26.2743 6.51408 26.8942 7.27879 26.8942H8.20187C8.96658 26.8942 9.58648 26.2743 9.58648 25.5096V19.5096C9.58446 17.7261 8.13916 16.2808 6.35571 16.2788H5.89417V12.316L7.41402 13.8359C7.50056 13.9224 7.61791 13.9711 7.74033 13.9711H12.3557C13.3753 13.9711 14.2019 13.1446 14.2019 12.125C14.2019 11.1054 13.3753 10.2788 12.3557 10.2788ZM12.3557 13.048H7.93141L5.75894 10.8756C5.57866 10.6954 5.28644 10.6954 5.10621 10.8757C5.01973 10.9622 4.9711 11.0795 4.9711 11.2019V16.7404C4.9711 16.9952 5.17775 17.2019 5.43264 17.2019H6.35571C7.62956 17.2034 8.66191 18.2357 8.66341 19.5096V25.5096C8.66341 25.7645 8.45675 25.9711 8.20187 25.9711H7.27879C7.02391 25.9711 6.81725 25.7645 6.81725 25.5096V20.4327C6.81725 19.6679 6.19735 19.048 5.43264 19.048H2.66341C1.89869 19.048 1.27879 18.4281 1.27879 17.6634V8.43266H6.16464L8.79864 11.0667C8.88517 11.1532 9.00252 11.2019 9.12494 11.2019H12.3557C12.8655 11.2019 13.2788 11.6151 13.2788 12.125C13.2788 12.6348 12.8655 13.048 12.3557 13.048Z" fill="white"/>
<path d="M27.5865 7.50958H22.0481C21.9256 7.50958 21.8083 7.55827 21.7217 7.64481L19.0877 10.2788H16.0481C15.0285 10.2788 14.2019 11.1054 14.2019 12.125C14.2019 13.1446 15.0285 13.9711 16.0481 13.9711H20.6634C20.7859 13.9711 20.9032 13.9224 20.9898 13.8359L22.5096 12.316V16.2788H22.0481C20.2646 16.2808 18.8193 17.7261 18.8173 19.5096V25.5096C18.8173 26.2743 19.4372 26.8942 20.2019 26.8942H21.125C21.8897 26.8942 22.5096 26.2743 22.5096 25.5096V20.4327C22.5096 20.1778 22.7162 19.9711 22.9711 19.9711H25.7404C27.0142 19.9696 28.0466 18.9373 28.0481 17.6634V7.97112C28.0481 7.71624 27.8414 7.50958 27.5865 7.50958ZM27.125 17.6634C27.125 18.4281 26.5051 19.048 25.7404 19.048H22.9711C22.2064 19.048 21.5865 19.6679 21.5865 20.4327V25.5096C21.5865 25.7645 21.3799 25.9711 21.125 25.9711H20.2019C19.947 25.9711 19.7404 25.7645 19.7404 25.5096V19.5096C19.7419 18.2357 20.7742 17.2034 22.0481 17.2019H22.9711C23.226 17.2019 23.4327 16.9952 23.4327 16.7404V11.2019C23.4326 10.947 23.226 10.7404 22.971 10.7405C22.8487 10.7405 22.7314 10.7891 22.6448 10.8756L20.4724 13.048H16.0481C15.5382 13.048 15.125 12.6348 15.125 12.125C15.125 11.6151 15.5382 11.2019 16.0481 11.2019H19.2788C19.4013 11.2019 19.5186 11.1532 19.6051 11.0667L22.2391 8.43266H27.125V17.6634Z" fill="white"/>
<path d="M19.7404 14.8942H8.66344C8.40856 14.8942 8.2019 15.1009 8.2019 15.3558C8.2019 15.6106 8.40856 15.8173 8.66344 15.8173H13.7404V25.9711H12.3558C12.1009 25.9711 11.8942 26.1778 11.8942 26.4327C11.8942 26.6876 12.1009 26.8942 12.3558 26.8942H16.0481C16.3029 26.8942 16.5096 26.6876 16.5096 26.4327C16.5096 26.1778 16.3029 25.9711 16.0481 25.9711H14.6634V15.8173H19.7404C19.9953 15.8173 20.2019 15.6106 20.2019 15.3558C20.2019 15.1009 19.9953 14.8942 19.7404 14.8942Z" fill="white"/>
<path d="M24.8173 1.04803H22.5096C22.2547 1.04803 22.0481 1.25469 22.0481 1.50957V3.81727C22.0481 5.34669 23.2879 6.5865 24.8173 6.5865C26.3467 6.5865 27.5866 5.34669 27.5866 3.81727C27.5851 2.28848 26.3461 1.04953 24.8173 1.04803ZM23.9133 5.42913C23.3298 5.10288 22.9691 4.4858 22.9712 3.81727V3.3705C24.2368 3.43119 25.4476 3.90559 26.4175 4.72096C25.9215 5.60804 24.8004 5.92506 23.9133 5.42913ZM22.9712 2.44742V1.97111H24.8173C25.8049 1.97446 26.6149 2.7544 26.6556 3.74111C25.5834 2.95321 24.3006 2.5028 22.9712 2.44742Z" fill="white"/>
<path d="M5.89431 1.04803H3.58661C2.05719 1.04803 0.817383 2.28784 0.817383 3.81727C0.817383 5.34669 2.05719 6.5865 3.58661 6.5865C5.1154 6.585 6.35434 5.34605 6.35584 3.81727V1.50957C6.35584 1.25469 6.14919 1.04803 5.89431 1.04803ZM5.43277 3.81727C5.43277 4.83686 4.60621 5.66342 3.58661 5.66342C2.92223 5.661 2.31075 5.30082 1.98646 4.72096C2.95638 3.90559 4.16711 3.43119 5.43277 3.3705V3.81727ZM5.43277 2.44742C4.10348 2.5024 2.82069 2.95228 1.74831 3.73973C1.78973 2.75353 2.59956 1.97446 3.58661 1.97111H5.43277V2.44742Z" fill="white"/>
</g>
<defs>
<clipPath id="clip0">
<rect width="27.6923" height="27.6923" fill="white" transform="translate(0.355713 0.125)"/>
</clipPath>
</defs>
</svg>
