<svg width="16" height="16" viewBox="0 0 16 16" fill="none" xmlns="http://www.w3.org/2000/svg">
<path d="M6.93333 5.8666H5.17707L3.6552 4.34473C3.6052 4.29473 3.5374 4.2666 3.46667 4.2666H0.266667C0.1194 4.2666 0 4.386 0 4.53327V10.1333C0.000866667 10.8693 0.597333 11.4657 1.33333 11.4666H2.93333C3.0806 11.4666 3.2 11.586 3.2 11.7333V14.6666C3.2 15.1084 3.55817 15.4666 4 15.4666H4.53333C4.97517 15.4666 5.33333 15.1084 5.33333 14.6666V11.1999C5.33217 10.1695 4.4971 9.33443 3.46667 9.33327H3.2V7.04367L4.07813 7.9218C4.12813 7.9718 4.19593 7.99993 4.26667 7.99993H6.93333C7.52243 7.99993 8 7.52237 8 6.93327C8 6.34417 7.52243 5.8666 6.93333 5.8666ZM6.93333 7.4666H4.37707L3.12187 6.2114C3.0177 6.10727 2.84887 6.1073 2.74473 6.21147C2.69477 6.26147 2.66667 6.32923 2.66667 6.39993V9.59993C2.66667 9.7472 2.78607 9.8666 2.93333 9.8666H3.46667C4.20267 9.86747 4.79913 10.4639 4.8 11.1999V14.6666C4.8 14.8139 4.6806 14.9333 4.53333 14.9333H4C3.85273 14.9333 3.73333 14.8139 3.73333 14.6666V11.7333C3.73333 11.2914 3.37517 10.9333 2.93333 10.9333H1.33333C0.8915 10.9333 0.533333 10.5751 0.533333 10.1333V4.79993H3.35627L4.87813 6.3218C4.92813 6.3718 4.99593 6.39993 5.06667 6.39993H6.93333C7.2279 6.39993 7.46667 6.6387 7.46667 6.93327C7.46667 7.22783 7.2279 7.4666 6.93333 7.4666Z" fill="#5713AE"/>
<path d="M15.7333 4.2666H12.5333C12.4626 4.2666 12.3948 4.29473 12.3448 4.34473L10.8229 5.8666H9.06667C8.47757 5.8666 8 6.34417 8 6.93327C8 7.52237 8.47757 7.99993 9.06667 7.99993H11.7333C11.8041 7.99993 11.8719 7.9718 11.9219 7.9218L12.8 7.04367V9.33327H12.5333C11.5029 9.33443 10.6678 10.1695 10.6667 11.1999V14.6666C10.6667 15.1084 11.0248 15.4666 11.4667 15.4666H12C12.4418 15.4666 12.8 15.1084 12.8 14.6666V11.7333C12.8 11.586 12.9194 11.4666 13.0667 11.4666H14.6667C15.4027 11.4657 15.9991 10.8693 16 10.1333V4.53327C16 4.386 15.8806 4.2666 15.7333 4.2666ZM15.4667 10.1333C15.4667 10.5751 15.1085 10.9333 14.6667 10.9333H13.0667C12.6248 10.9333 12.2667 11.2914 12.2667 11.7333V14.6666C12.2667 14.8139 12.1473 14.9333 12 14.9333H11.4667C11.3194 14.9333 11.2 14.8139 11.2 14.6666V11.1999C11.2009 10.4639 11.7973 9.86747 12.5333 9.8666H13.0667C13.2139 9.8666 13.3333 9.7472 13.3333 9.59993V6.39993C13.3333 6.25267 13.2139 6.1333 13.0666 6.13333C12.9959 6.13333 12.9281 6.16143 12.8781 6.2114L11.6229 7.4666H9.06667C8.7721 7.4666 8.53333 7.22783 8.53333 6.93327C8.53333 6.6387 8.7721 6.39993 9.06667 6.39993H10.9333C11.0041 6.39993 11.0719 6.3718 11.1219 6.3218L12.6437 4.79993H15.4667V10.1333Z" fill="#5713AE"/>
<path d="M11.1999 8.5332H4.79987C4.6526 8.5332 4.5332 8.6526 4.5332 8.79987C4.5332 8.94714 4.6526 9.06654 4.79987 9.06654H7.7332V14.9332H6.9332C6.78594 14.9332 6.66654 15.0526 6.66654 15.1999C6.66654 15.3471 6.78594 15.4665 6.9332 15.4665H9.06654C9.2138 15.4665 9.3332 15.3471 9.3332 15.1999C9.3332 15.0526 9.2138 14.9332 9.06654 14.9332H8.26654V9.06654H11.1999C11.3471 9.06654 11.4665 8.94714 11.4665 8.79987C11.4665 8.6526 11.3471 8.5332 11.1999 8.5332Z" fill="#5713AE"/>
<path d="M14.1332 0.533203H12.7999C12.6526 0.533203 12.5332 0.652603 12.5332 0.79987V2.1332C12.5332 3.01687 13.2495 3.7332 14.1332 3.7332C15.0169 3.7332 15.7332 3.01687 15.7332 2.1332C15.7323 1.2499 15.0165 0.53407 14.1332 0.533203ZM13.6109 3.0645C13.2737 2.876 13.0653 2.51947 13.0665 2.1332V1.87507C13.7978 1.91014 14.4973 2.18424 15.0577 2.65534C14.7712 3.16787 14.1234 3.35104 13.6109 3.0645ZM13.0665 1.34174V1.06654H14.1332C14.7038 1.06847 15.1718 1.5191 15.1953 2.0892C14.5758 1.63397 13.8347 1.37374 13.0665 1.34174Z" fill="#5713AE"/>
<path d="M3.19993 0.533203H1.8666C0.982935 0.533203 0.266602 1.24954 0.266602 2.1332C0.266602 3.01687 0.982935 3.7332 1.8666 3.7332C2.7499 3.73234 3.46573 3.0165 3.4666 2.1332V0.79987C3.4666 0.652603 3.3472 0.533203 3.19993 0.533203ZM2.93327 2.1332C2.93327 2.7223 2.4557 3.19987 1.8666 3.19987C1.48273 3.19847 1.12943 2.99037 0.942068 2.65534C1.50247 2.18424 2.202 1.91014 2.93327 1.87507V2.1332ZM2.93327 1.34174C2.16523 1.3735 1.42407 1.63344 0.804468 2.0884C0.828402 1.5186 1.2963 1.06847 1.8666 1.06654H2.93327V1.34174Z" fill="#5713AE"/>
</svg>
