<svg width="16" height="16" viewBox="0 0 16 16" fill="none" xmlns="http://www.w3.org/2000/svg">
<path d="M6.93333 5.86672H5.17707L3.6552 4.34486C3.6052 4.29486 3.5374 4.26672 3.46667 4.26672H0.266667C0.1194 4.26672 0 4.38612 0 4.53339V10.1334C0.000866667 10.8694 0.597333 11.4659 1.33333 11.4667H2.93333C3.0806 11.4667 3.2 11.5861 3.2 11.7334V14.6667C3.2 15.1086 3.55817 15.4667 4 15.4667H4.53333C4.97517 15.4667 5.33333 15.1086 5.33333 14.6667V11.2001C5.33217 10.1696 4.4971 9.33456 3.46667 9.33339H3.2V7.04379L4.07813 7.92192C4.12813 7.97192 4.19593 8.00006 4.26667 8.00006H6.93333C7.52243 8.00006 8 7.52249 8 6.93339C8 6.34429 7.52243 5.86672 6.93333 5.86672ZM6.93333 7.46672H4.37707L3.12187 6.21152C3.0177 6.10739 2.84887 6.10742 2.74473 6.21159C2.69477 6.26159 2.66667 6.32936 2.66667 6.40006V9.60006C2.66667 9.74732 2.78607 9.86672 2.93333 9.86672H3.46667C4.20267 9.86759 4.79913 10.4641 4.8 11.2001V14.6667C4.8 14.814 4.6806 14.9334 4.53333 14.9334H4C3.85273 14.9334 3.73333 14.814 3.73333 14.6667V11.7334C3.73333 11.2916 3.37517 10.9334 2.93333 10.9334H1.33333C0.8915 10.9334 0.533333 10.5752 0.533333 10.1334V4.80006H3.35627L4.87813 6.32192C4.92813 6.37192 4.99593 6.40006 5.06667 6.40006H6.93333C7.2279 6.40006 7.46667 6.63882 7.46667 6.93339C7.46667 7.22796 7.2279 7.46672 6.93333 7.46672Z" fill="white"/>
<path d="M15.7333 4.26672H12.5333C12.4626 4.26672 12.3948 4.29486 12.3448 4.34486L10.8229 5.86672H9.06667C8.47757 5.86672 8 6.34429 8 6.93339C8 7.52249 8.47757 8.00006 9.06667 8.00006H11.7333C11.8041 8.00006 11.8719 7.97192 11.9219 7.92192L12.8 7.04379V9.33339H12.5333C11.5029 9.33456 10.6678 10.1696 10.6667 11.2001V14.6667C10.6667 15.1086 11.0248 15.4667 11.4667 15.4667H12C12.4418 15.4667 12.8 15.1086 12.8 14.6667V11.7334C12.8 11.5861 12.9194 11.4667 13.0667 11.4667H14.6667C15.4027 11.4659 15.9991 10.8694 16 10.1334V4.53339C16 4.38612 15.8806 4.26672 15.7333 4.26672ZM15.4667 10.1334C15.4667 10.5752 15.1085 10.9334 14.6667 10.9334H13.0667C12.6248 10.9334 12.2667 11.2916 12.2667 11.7334V14.6667C12.2667 14.814 12.1473 14.9334 12 14.9334H11.4667C11.3194 14.9334 11.2 14.814 11.2 14.6667V11.2001C11.2009 10.4641 11.7973 9.86759 12.5333 9.86672H13.0667C13.2139 9.86672 13.3333 9.74732 13.3333 9.60006V6.40006C13.3333 6.25279 13.2139 6.13342 13.0666 6.13346C12.9959 6.13346 12.9281 6.16156 12.8781 6.21152L11.6229 7.46672H9.06667C8.7721 7.46672 8.53333 7.22796 8.53333 6.93339C8.53333 6.63882 8.7721 6.40006 9.06667 6.40006H10.9333C11.0041 6.40006 11.0719 6.37192 11.1219 6.32192L12.6437 4.80006H15.4667V10.1334Z" fill="white"/>
<path d="M11.1999 8.53333H4.79987C4.6526 8.53333 4.5332 8.65273 4.5332 8.79999C4.5332 8.94726 4.6526 9.06666 4.79987 9.06666H7.7332V14.9333H6.9332C6.78594 14.9333 6.66654 15.0527 6.66654 15.2C6.66654 15.3473 6.78594 15.4667 6.9332 15.4667H9.06654C9.2138 15.4667 9.3332 15.3473 9.3332 15.2C9.3332 15.0527 9.2138 14.9333 9.06654 14.9333H8.26654V9.06666H11.1999C11.3471 9.06666 11.4665 8.94726 11.4665 8.79999C11.4665 8.65273 11.3471 8.53333 11.1999 8.53333Z" fill="white"/>
<path d="M14.1332 0.533325H12.7999C12.6526 0.533325 12.5332 0.652725 12.5332 0.799992V2.13333C12.5332 3.01699 13.2495 3.73333 14.1332 3.73333C15.0169 3.73333 15.7332 3.01699 15.7332 2.13333C15.7323 1.25003 15.0165 0.534192 14.1332 0.533325ZM13.6109 3.06463C13.2737 2.87613 13.0653 2.51959 13.0665 2.13333V1.87519C13.7978 1.91026 14.4973 2.18436 15.0577 2.65546C14.7712 3.16799 14.1234 3.35116 13.6109 3.06463ZM13.0665 1.34186V1.06666H14.1332C14.7038 1.06859 15.1718 1.51923 15.1953 2.08933C14.5758 1.63409 13.8347 1.37386 13.0665 1.34186Z" fill="white"/>
<path d="M3.19993 0.533325H1.8666C0.982935 0.533325 0.266602 1.24966 0.266602 2.13333C0.266602 3.01699 0.982935 3.73333 1.8666 3.73333C2.7499 3.73246 3.46573 3.01663 3.4666 2.13333V0.799992C3.4666 0.652725 3.3472 0.533325 3.19993 0.533325ZM2.93327 2.13333C2.93327 2.72243 2.4557 3.19999 1.8666 3.19999C1.48273 3.19859 1.12943 2.99049 0.942068 2.65546C1.50247 2.18436 2.202 1.91026 2.93327 1.87519V2.13333ZM2.93327 1.34186C2.16523 1.37363 1.42407 1.63356 0.804468 2.08853C0.828402 1.51873 1.2963 1.06859 1.8666 1.06666H2.93327V1.34186Z" fill="white"/>
</svg>
