<svg width="10" height="10" viewBox="0 0 10 10" fill="none" xmlns="http://www.w3.org/2000/svg">
<path d="M9.0625 8.11C9.06262 8.00945 9.03847 7.91037 8.99212 7.82115C8.94577 7.73193 8.87858 7.65521 8.79625 7.5975C7.66872 6.86731 6.34211 6.50563 5 6.5625C3.65789 6.50563 2.33128 6.86731 1.20375 7.5975C1.12142 7.65521 1.05423 7.73193 1.00788 7.82115C0.961528 7.91037 0.937385 8.00945 0.9375 8.11V9.6875H9.0625V8.11Z" stroke="#111111" stroke-linecap="round" stroke-linejoin="round"/>
<path d="M5 4.6875C6.20812 4.6875 7.1875 3.70812 7.1875 2.5C7.1875 1.29188 6.20812 0.3125 5 0.3125C3.79188 0.3125 2.8125 1.29188 2.8125 2.5C2.8125 3.70812 3.79188 4.6875 5 4.6875Z" stroke="#111111" stroke-linecap="round" stroke-linejoin="round"/>
</svg>
