<svg width="40" height="28" viewBox="0 0 40 28" fill="none" xmlns="http://www.w3.org/2000/svg">
<path d="M4.23047 13.564C3.85319 13.9412 3.3986 14.1299 2.8667 14.1299C2.3348 14.1299 1.88021 13.9412 1.50293 13.564C1.12565 13.1867 0.937012 12.7321 0.937012 12.2002C0.937012 11.6683 1.12565 11.2137 1.50293 10.8364C1.88021 10.4591 2.3348 10.2705 2.8667 10.2705C3.3986 10.2705 3.85319 10.4591 4.23047 10.8364C4.60775 11.2137 4.79639 11.6683 4.79639 12.2002C4.79639 12.7321 4.60775 13.1867 4.23047 13.564ZM21.811 14H18.3784V6.24414H18.3042L15.2891 13.8423H13.1831L10.168 6.24414H10.0938V14H6.66113V0.612793H11.207L14.2036 8.42432H14.2778L17.2651 0.612793H21.811V14ZM25.1694 2.24561C26.3817 1.00244 28.0238 0.380859 30.0957 0.380859C32.1676 0.380859 33.8097 1.00244 35.022 2.24561C36.2342 3.48877 36.8403 5.17725 36.8403 7.31104C36.8403 9.44482 36.2342 11.1333 35.022 12.3765C33.8097 13.6134 32.1676 14.2319 30.0957 14.2319C28.0176 14.2319 26.3724 13.6134 25.1602 12.3765C23.9541 11.1333 23.3511 9.44482 23.3511 7.31104C23.3511 5.17725 23.9572 3.48877 25.1694 2.24561ZM32.0811 4.54639C31.5801 3.85986 30.9183 3.5166 30.0957 3.5166C29.2731 3.5166 28.6113 3.85986 28.1104 4.54639C27.6094 5.23291 27.3589 6.15446 27.3589 7.31104C27.3589 8.46143 27.6063 9.37988 28.1011 10.0664C28.6021 10.7529 29.2669 11.0962 30.0957 11.0962C30.9245 11.0962 31.5863 10.7529 32.0811 10.0664C32.582 9.37988 32.8325 8.46143 32.8325 7.31104C32.8325 6.15446 32.582 5.23291 32.0811 4.54639Z" fill="#772FD2"/>
<path d="M10.4062 27.1562C8.91146 27.1562 7.71875 26.625 6.82812 25.5625C5.9375 24.5 5.49219 23.0729 5.49219 21.2812C5.49219 19.526 5.93229 18.1354 6.8125 17.1094C7.69792 16.0833 8.89583 15.5703 10.4062 15.5703C11.526 15.5703 12.5078 15.9375 13.3516 16.6719C14.1953 17.401 14.6667 18.2943 14.7656 19.3516H14.3828C14.2786 18.3932 13.8438 17.5859 13.0781 16.9297C12.3125 16.2682 11.4219 15.9375 10.4062 15.9375C9.02083 15.9375 7.91927 16.4193 7.10156 17.3828C6.28906 18.3411 5.88281 19.6406 5.88281 21.2812C5.88281 22.9688 6.29167 24.3099 7.10938 25.3047C7.93229 26.2943 9.03125 26.7891 10.4062 26.7891C11.4635 26.7891 12.3672 26.4896 13.1172 25.8906C13.8672 25.2917 14.2891 24.5156 14.3828 23.5625H14.7656C14.7083 24.2604 14.4818 24.8828 14.0859 25.4297C13.6953 25.9766 13.1771 26.401 12.5312 26.7031C11.8906 27.0052 11.1823 27.1562 10.4062 27.1562ZM16.5469 16.0938V21.7188H19.6406C20.6458 21.7188 21.4375 21.4688 22.0156 20.9688C22.5938 20.4635 22.8828 19.776 22.8828 18.9062C22.8828 18.0208 22.5938 17.3307 22.0156 16.8359C21.4427 16.3411 20.651 16.0938 19.6406 16.0938H16.5469ZM16.5469 22.0781V27H16.1562V15.7266H19.6484C20.7734 15.7266 21.6589 16.0104 22.3047 16.5781C22.9505 17.1406 23.2734 17.9167 23.2734 18.9062C23.2734 19.7292 23.0339 20.4141 22.5547 20.9609C22.0755 21.5078 21.4115 21.8542 20.5625 22L23.5469 27H23.0938L20.1562 22.0625C19.9792 22.0729 19.8073 22.0781 19.6406 22.0781H16.5469ZM35.3047 27H34.9219V16.625H34.8906L30.3281 26.9922H29.9141L25.3516 16.625H25.3203V27H24.9375V15.7266H25.3516L30.1094 26.5078H30.1406L34.875 15.7266H35.3047V27Z" fill="#772FD2"/>
</svg>
