<svg width="33" height="33" viewBox="0 0 33 33" fill="none" xmlns="http://www.w3.org/2000/svg">
<path d="M16.5 20.625C18.7782 20.625 20.625 18.7782 20.625 16.5C20.625 14.2218 18.7782 12.375 16.5 12.375C14.2218 12.375 12.375 14.2218 12.375 16.5C12.375 18.7782 14.2218 20.625 16.5 20.625Z" stroke="white" stroke-miterlimit="10" stroke-linecap="square"/>
<path d="M31.9688 18.5625V14.4375L27.537 13.8837C27.2544 12.6864 26.7836 11.5624 26.1546 10.5456L28.8961 7.02075L25.9792 4.10386L22.4544 6.84544C21.4371 6.21689 20.313 5.74613 19.1163 5.46305L18.5625 1.03125H14.4375L13.8837 5.46305C12.6864 5.74561 11.5624 6.21637 10.5456 6.84544L7.02075 4.10386L4.10386 7.02075L6.84544 10.5456C6.21689 11.5629 5.74613 12.687 5.46305 13.8837L1.03125 14.4375V18.5625L5.46305 19.1163C5.74561 20.3136 6.21637 21.4376 6.84544 22.4544L4.10386 25.9792L7.02075 28.8961L10.5456 26.1546C11.5629 26.7831 12.687 27.2539 13.8837 27.537L14.4375 31.9688H18.5625L19.1163 27.537C20.3136 27.2544 21.4376 26.7836 22.4544 26.1546L25.9792 28.8961L28.8961 25.9792L26.1546 22.4544C26.7831 21.4371 27.2539 20.313 27.537 19.1163L31.9688 18.5625Z" stroke="white" stroke-miterlimit="10" stroke-linecap="square"/>
</svg>
