<svg width="30" height="30" viewBox="0 0 30 30" fill="none" xmlns="http://www.w3.org/2000/svg">
<path fill-rule="evenodd" clip-rule="evenodd" d="M29.9613 0.326429C29.9863 0.387962 29.9998 0.452496 29.9998 0.517531V7.51026C29.9998 7.57587 29.9869 7.64083 29.9618 7.70144C29.9367 7.76205 29.8999 7.81711 29.8534 7.86347C29.807 7.90984 29.7519 7.94661 29.6913 7.97167C29.6307 7.99673 29.5657 8.0096 29.5001 8.00953C29.2239 8.00953 29.0478 7.75089 29.0478 7.47474V1.67565L18.8574 11.8591C18.811 11.9055 18.7559 11.9423 18.6953 11.9675C18.6347 11.9926 18.5698 12.0055 18.5041 12.0056C18.4385 12.0056 18.3735 11.9927 18.3129 11.9676C18.2523 11.9425 18.1972 11.9057 18.1508 11.8593C18.1044 11.813 18.0675 11.7579 18.0424 11.6973C18.0173 11.6367 18.0043 11.5717 18.0043 11.5061C18.0043 11.4405 18.0172 11.3755 18.0423 11.3148C18.0674 11.2542 18.1041 11.1991 18.1505 11.1527L28.339 0.971273H22.5444C22.2682 0.971273 22.0026 0.793679 22.0026 0.517531C22.0026 0.241384 22.2267 0.0182648 22.5023 0.0182648H29.4996C29.5984 0.0182977 29.6949 0.0475813 29.7771 0.102423C29.8593 0.157265 29.9234 0.23521 29.9613 0.326429ZM8.65045 11.4424L18.5672 21.3521L22.7245 18.5827C22.8147 18.5225 22.922 18.4933 23.0303 18.4994C23.1386 18.5056 23.2419 18.5467 23.3248 18.6167L29.8222 24.1106C29.8724 24.1531 29.9137 24.2051 29.9438 24.2635C29.9738 24.322 29.992 24.3858 29.9974 24.4514C30.0027 24.5169 29.9951 24.5828 29.9749 24.6454C29.9547 24.708 29.9224 24.7659 29.8798 24.816L26.0597 29.2929C26.0455 29.3088 26.031 29.3245 26.0162 29.3399C25.5835 29.7726 24.9842 29.9868 24.2248 29.9868C21.0301 29.9868 15.0624 26.1667 9.37484 20.4807C6.05857 17.1664 3.31661 13.6811 1.65372 10.6659C-0.125728 7.44023 -0.468411 5.139 0.661692 4.00989C0.671197 4.00039 0.704715 3.96537 0.71472 3.95737L5.1836 0.137829C5.28466 0.0517826 5.41773 0.00976023 5.5488 0.0192653C5.68137 0.0302712 5.80394 0.0938051 5.88998 0.194859L11.3879 6.68832C11.458 6.77089 11.4993 6.87406 11.5056 6.9822C11.5118 7.09035 11.4826 7.19757 11.4224 7.28764L8.65045 11.4424ZM5.45125 1.22341L1.38608 4.69826L1.36857 4.71627C0.619169 5.46467 1.0534 7.50876 2.52919 10.1837C4.14805 13.1183 6.83048 16.5246 10.0817 19.7743C15.4216 25.1132 21.3697 28.9877 24.2248 28.9877C24.7095 28.9877 25.0712 28.8717 25.2998 28.6435L28.7937 24.5499L22.9661 19.6217L18.7809 22.4102C18.6848 22.4746 18.5694 22.5036 18.4543 22.4923C18.3392 22.481 18.2317 22.43 18.15 22.3482L7.65442 11.8591C7.57261 11.7775 7.52165 11.6701 7.51025 11.5551C7.49884 11.4402 7.5277 11.3248 7.59189 11.2287L10.3819 7.04601L5.45125 1.22341Z" fill="#F9C02E"/>
</svg>
