<svg width="30" height="30" viewBox="0 0 30 30" fill="none" xmlns="http://www.w3.org/2000/svg">
<g clip-path="url(#clip0)">
<path d="M24.1484 7.02285C23.5849 6.84729 23.4999 6.77898 23.4999 6.50112C23.4999 6.22501 23.7238 6.00115 23.9999 6.00115C24.276 6.00115 24.4999 6.22501 24.4999 6.50112H25.4998C25.4979 5.86759 25.0975 5.30381 24.4999 5.09332V4.50122H23.4999V5.09332C22.9024 5.30381 22.5019 5.86759 22.5 6.50112C22.5 7.55651 23.3456 7.81993 23.8505 7.97736C24.4149 8.15335 24.4999 8.22197 24.4999 8.50102C24.4996 8.77701 24.2759 9.00075 23.9999 9.001C23.7239 9.00075 23.5002 8.77701 23.4999 8.50102H22.5C22.5019 9.13455 22.9024 9.69834 23.4999 9.90876V10.5009H24.4999V9.90883C25.0975 9.69834 25.4979 9.13455 25.4998 8.50102C25.4998 7.4442 24.6537 7.18052 24.1484 7.02285Z" fill="#3F2FD2"/>
<path d="M6.14883 7.02285C5.58536 6.84729 5.50043 6.77898 5.50043 6.50112C5.50043 6.22501 5.72429 6.00115 6.0004 6.00115C6.27651 6.00115 6.50038 6.22501 6.50038 6.50112H7.50032C7.49838 5.86759 7.09797 5.30381 6.50038 5.09332V4.50122H5.50043V5.09332C4.9029 5.30381 4.50243 5.86759 4.50049 6.50112C4.50049 7.55651 5.34613 7.81993 5.85097 7.97736C6.41538 8.15335 6.50038 8.22197 6.50038 8.50102C6.50013 8.77701 6.27639 9.00075 6.0004 9.001C5.72442 9.00075 5.50068 8.77701 5.50043 8.50102H4.50049C4.50243 9.13455 4.9029 9.69834 5.50043 9.90876V10.5009H6.50038V9.90883C7.0979 9.69834 7.49838 9.13455 7.50032 8.50102C7.50032 7.4442 6.65412 7.18052 6.14883 7.02285Z" fill="#3F2FD2"/>
<path d="M26.864 11.5949C29.1283 10.0207 29.6877 6.90904 28.1136 4.64472C26.5394 2.3804 23.4277 1.82093 21.1634 3.3951C21.0331 3.48565 20.9072 3.5824 20.7861 3.68496C19.5096 0.630304 15.9985 -0.811183 12.9439 0.465312C11.3687 1.12353 10.1489 2.42215 9.59054 4.03538C8.65503 3.05468 7.35841 2.50033 6.0031 2.50164C3.24406 2.49939 1.00562 4.73421 1.00337 7.49326C1.00205 9.12792 1.80051 10.6598 3.14132 11.5949C1.34679 11.9591 0.00341798 13.3744 0.00341798 15.0635V29.5002C0.00335549 29.7763 0.227094 30.0001 0.503142 30.0002C0.503204 30.0002 0.503329 30.0002 0.503392 30.0002H29.5019C29.7779 30.0003 30.0018 29.7765 30.0019 29.5005C30.0019 29.5004 30.0019 29.5003 30.0019 29.5002V15.0635C30.0019 13.3744 28.6584 11.9591 26.864 11.5949ZM21.2523 6.00146C21.2518 5.57829 21.2064 5.15632 21.117 4.74265C22.6389 3.13905 25.1725 3.0728 26.7761 4.59466C28.3797 6.11652 28.446 8.6502 26.9241 10.2538C25.4023 11.8574 22.8686 11.9236 21.265 10.4018C20.884 10.0401 20.5778 9.60702 20.364 9.12717C20.9441 8.18778 21.2517 7.10559 21.2523 6.00146ZM21.1536 11.6C20.7328 11.6837 20.3267 11.8297 19.9489 12.0333C19.4392 11.6491 18.862 11.3639 18.2472 11.1926C18.7866 10.8796 19.2742 10.4848 19.6926 10.0224C20.0602 10.6474 20.5586 11.1856 21.1536 11.6ZM15.2526 1.00172C18.0139 1.00172 20.2524 3.24017 20.2524 6.00146C20.2524 8.76275 18.0139 11.0012 15.2526 11.0012C12.4913 11.0012 10.2529 8.76275 10.2529 6.00146C10.256 3.24148 12.4926 1.00491 15.2526 1.00172ZM12.0876 11.0889C11.3326 11.2302 10.6207 11.5444 10.0076 12.0071C9.6471 11.8191 9.26187 11.6828 8.86333 11.6024C9.57079 11.1083 10.1373 10.4383 10.5071 9.65852C10.9449 10.2253 11.4801 10.7097 12.0876 11.0889ZM2.00331 7.50138C1.99813 5.2975 3.78053 3.50678 5.98442 3.50159C7.31516 3.49847 8.55985 4.15887 9.30331 5.26256C9.15257 6.39944 9.34143 7.55544 9.84609 8.58526C9.24975 10.7099 7.04392 11.9489 4.91929 11.3526C3.19344 10.8681 2.00144 9.29385 2.00331 7.50138ZM8.003 29.0003H1.00337V15.0635C1.00337 13.6505 2.36948 12.5011 4.04908 12.5011H7.95706C8.3891 12.5021 8.81721 12.5838 9.21925 12.742C8.43479 13.6466 8.00294 14.8036 8.003 16.0009V29.0003ZM21.0023 29.0003H9.00295V16.0009C9.00545 13.793 10.7948 12.0036 13.0027 12.0011H16.8775C19.1545 12.0038 20.9996 13.849 21.0023 16.1259V29.0003ZM29.0019 29.0003H22.0023V16.1259C22.0021 14.8879 21.5514 13.6922 20.7343 12.762C21.1511 12.5903 21.5974 12.5016 22.0481 12.5011H25.9561C27.6357 12.5011 29.0018 13.6505 29.0018 15.0635V29.0003H29.0019Z" fill="#3F2FD2"/>
<path d="M17.4371 7.00103C17.2103 6.11688 16.4126 5.49929 15.4998 5.50117C14.9476 5.50117 14.4999 5.0535 14.4999 4.50122C14.4999 3.94893 14.9476 3.50127 15.4998 3.50127C16.0521 3.50127 16.4998 3.94893 16.4998 4.50122H17.4998C17.4971 3.59182 16.8805 2.79899 15.9998 2.57231V2.00134H14.9999V2.57231C13.9322 2.84617 13.2888 3.93362 13.5626 5.00125C13.7894 5.8854 14.5871 6.50299 15.4998 6.50111C16.0521 6.50111 16.4998 6.94878 16.4998 7.50106C16.4998 8.05335 16.0521 8.50101 15.4998 8.50101C14.9479 8.50039 14.5005 8.05304 14.4999 7.50106H13.4999C13.5026 8.41046 14.1192 9.20329 14.9999 9.42997V10.0009H15.9998V9.42997C17.0675 9.15611 17.711 8.06866 17.4371 7.00103Z" fill="#3F2FD2"/>
</g>
<defs>
<clipPath id="clip0">
<rect width="30" height="30" fill="white"/>
</clipPath>
</defs>
</svg>
