<svg width="30" height="30" viewBox="0 0 30 30" fill="none" xmlns="http://www.w3.org/2000/svg">
<g clip-path="url(#clip0)">
<path d="M28.102 19.146L25.602 16.646C25.5083 16.5523 25.3811 16.4996 25.2485 16.4996C25.1159 16.4996 24.9888 16.5523 24.895 16.646L14.895 26.646C14.8017 26.7402 14.7492 26.8674 14.749 27V29.5C14.749 29.6326 14.8017 29.7598 14.8955 29.8536C14.9892 29.9474 15.1164 30 15.249 30H17.749C17.882 30 18.009 29.947 18.102 29.853L25.599 22.356L25.602 22.354L25.604 22.351L28.102 19.853C28.1958 19.7593 28.2484 19.6321 28.2484 19.4995C28.2484 19.3669 28.1958 19.2398 28.102 19.146ZM17.542 29H15.749V27.207L22.749 20.207L24.542 22L17.542 29ZM25.249 21.293L23.456 19.5L25.249 17.707L27.042 19.5L25.249 21.293Z" fill="#3BD654"/>
<path d="M12.2495 29H3.49951C3.30076 28.9995 3.1103 28.9203 2.96976 28.7797C2.82923 28.6392 2.75004 28.4487 2.74951 28.25V4.75C2.74951 4.337 3.08651 4 3.49951 4H6.74951V4.5C6.74951 4.63261 6.80219 4.75979 6.89596 4.85355C6.98973 4.94732 7.1169 5 7.24951 5H18.2495C18.3821 5 18.5093 4.94732 18.6031 4.85355C18.6968 4.75979 18.7495 4.63261 18.7495 4.5V4H21.9995C22.4125 4 22.7495 4.337 22.7495 4.75V15.5C22.7495 15.6326 22.8022 15.7598 22.896 15.8536C22.9897 15.9473 23.1169 16 23.2495 16C23.3821 16 23.5093 15.9473 23.6031 15.8536C23.6968 15.7598 23.7495 15.6326 23.7495 15.5V4.75C23.7495 3.785 22.9645 3 21.9995 3H18.6995C18.5836 2.43566 18.2765 1.92858 17.8302 1.56425C17.3839 1.19992 16.8256 1.00063 16.2495 1H14.4755C14.1215 0.391 13.4665 0 12.7495 0C12.0325 0 11.3775 0.391 11.0235 1H9.24951C8.04151 1 7.03251 1.86 6.79951 3H3.49951C2.53451 3 1.74951 3.785 1.74951 4.75V28.25C1.74951 29.215 2.53451 30 3.49951 30H12.2495C12.3821 30 12.5093 29.9473 12.6031 29.8536C12.6968 29.7598 12.7495 29.6326 12.7495 29.5C12.7495 29.3674 12.6968 29.2402 12.6031 29.1464C12.5093 29.0527 12.3821 29 12.2495 29ZM9.24951 2H11.3405C11.4437 2.00016 11.5444 1.96832 11.6288 1.90886C11.7131 1.8494 11.777 1.76525 11.8115 1.668C11.9545 1.269 12.3315 1 12.7495 1C13.1675 1 13.5445 1.269 13.6865 1.668C13.7212 1.76517 13.7851 1.84924 13.8694 1.90868C13.9537 1.96811 14.0543 2.00001 14.1575 2H16.2495C17.0765 2 17.7495 2.673 17.7495 3.5V4H7.74951V3.5C7.74951 2.673 8.42251 2 9.24951 2Z" fill="#3BD654"/>
</g>
<defs>
<clipPath id="clip0">
<rect width="30" height="30" fill="white"/>
</clipPath>
</defs>
</svg>
