<svg width="30" height="30" viewBox="0 0 30 30" fill="none" xmlns="http://www.w3.org/2000/svg">
<path d="M13 11.0001H9.707L6.8535 8.14662C6.75975 8.05287 6.63262 8.00012 6.5 8.00012H0.5C0.223875 8.00012 0 8.224 0 8.50012V19.0001C0.001625 20.3801 1.12 21.4985 2.5 21.5001H5.5C5.77613 21.5001 6 21.724 6 22.0001V27.5001C6 28.3286 6.67156 29.0001 7.5 29.0001H8.5C9.32844 29.0001 10 28.3286 10 27.5001V21.0001C9.99781 19.0681 8.43206 17.5023 6.5 17.5001H6V13.2071L7.6465 14.8536C7.74025 14.9474 7.86738 15.0001 8 15.0001H13C14.1046 15.0001 15 14.1047 15 13.0001C15 11.8956 14.1046 11.0001 13 11.0001ZM13 14.0001H8.207L5.8535 11.6466C5.65819 11.4514 5.34163 11.4514 5.14638 11.6467C5.05269 11.7405 5 11.8676 5 12.0001V18.0001C5 18.2762 5.22387 18.5001 5.5 18.5001H6.5C7.88 18.5017 8.99837 19.6201 9 21.0001V27.5001C9 27.7762 8.77613 28.0001 8.5 28.0001H7.5C7.22387 28.0001 7 27.7762 7 27.5001V22.0001C7 21.1717 6.32844 20.5001 5.5 20.5001H2.5C1.67156 20.5001 1 19.8286 1 19.0001V9.00012H6.293L9.1465 11.8536C9.24025 11.9474 9.36738 12.0001 9.5 12.0001H13C13.5523 12.0001 14 12.4478 14 13.0001C14 13.5524 13.5523 14.0001 13 14.0001Z" fill="#E66161"/>
<path d="M29.5 8.00012H23.5C23.3674 8.00012 23.2402 8.05287 23.1465 8.14662L20.293 11.0001H17C15.8954 11.0001 15 11.8956 15 13.0001C15 14.1047 15.8954 15.0001 17 15.0001H22C22.1326 15.0001 22.2598 14.9474 22.3535 14.8536L24 13.2071V17.5001H23.5C21.5679 17.5023 20.0022 19.0681 20 21.0001V27.5001C20 28.3286 20.6716 29.0001 21.5 29.0001H22.5C23.3284 29.0001 24 28.3286 24 27.5001V22.0001C24 21.724 24.2239 21.5001 24.5 21.5001H27.5C28.88 21.4985 29.9984 20.3801 30 19.0001V8.50012C30 8.224 29.7761 8.00012 29.5 8.00012ZM29 19.0001C29 19.8286 28.3284 20.5001 27.5 20.5001H24.5C23.6716 20.5001 23 21.1717 23 22.0001V27.5001C23 27.7762 22.7761 28.0001 22.5 28.0001H21.5C21.2239 28.0001 21 27.7762 21 27.5001V21.0001C21.0016 19.6201 22.12 18.5017 23.5 18.5001H24.5C24.7761 18.5001 25 18.2762 25 18.0001V12.0001C24.9999 11.724 24.7761 11.5002 24.4999 11.5002C24.3673 11.5002 24.2402 11.5529 24.1465 11.6466L21.793 14.0001H17C16.4477 14.0001 16 13.5524 16 13.0001C16 12.4478 16.4477 12.0001 17 12.0001H20.5C20.6326 12.0001 20.7598 11.9474 20.8535 11.8536L23.707 9.00012H29V19.0001Z" fill="#E66161"/>
<path d="M21 16H9C8.72387 16 8.5 16.2239 8.5 16.5C8.5 16.7761 8.72387 17 9 17H14.5V28H13C12.7239 28 12.5 28.2239 12.5 28.5C12.5 28.7761 12.7239 29 13 29H17C17.2761 29 17.5 28.7761 17.5 28.5C17.5 28.2239 17.2761 28 17 28H15.5V17H21C21.2761 17 21.5 16.7761 21.5 16.5C21.5 16.2239 21.2761 16 21 16Z" fill="#E66161"/>
<path d="M26.5 1H24C23.7239 1 23.5 1.22387 23.5 1.5V4C23.5 5.65688 24.8431 7 26.5 7C28.1569 7 29.5 5.65688 29.5 4C29.4984 2.34381 28.1562 1.00163 26.5 1ZM25.5207 5.74619C24.8885 5.39275 24.4977 4.72425 24.5 4V3.516C25.8711 3.58175 27.1827 4.09569 28.2335 4.979C27.6962 5.94 26.4816 6.28344 25.5207 5.74619ZM24.5 2.516V2H26.5C27.5699 2.00362 28.4474 2.84856 28.4915 3.9175C27.3299 3.06394 25.9402 2.576 24.5 2.516Z" fill="#E66161"/>
<path d="M6 1H3.5C1.84313 1 0.5 2.34312 0.5 4C0.5 5.65688 1.84313 7 3.5 7C5.15619 6.99837 6.49838 5.65619 6.5 4V1.5C6.5 1.22387 6.27613 1 6 1ZM5.5 4C5.5 5.10456 4.60456 6 3.5 6C2.78025 5.99738 2.11781 5.60719 1.7665 4.979C2.81725 4.09569 4.12888 3.58175 5.5 3.516V4ZM5.5 2.516C4.05994 2.57556 2.67025 3.06294 1.5085 3.916C1.55338 2.84762 2.43069 2.00362 3.5 2H5.5V2.516Z" fill="#E66161"/>
</svg>
