<svg width="30" height="30" viewBox="0 0 30 30" fill="none" xmlns="http://www.w3.org/2000/svg">
<path d="M29.8492 13.9752H28.4098V7.35404C28.4098 5.76668 27.1185 4.47532 25.5311 4.47532H23.5817L21.5867 0.888416C21.2826 0.340244 20.704 0 20.0765 0C19.784 0 19.4938 0.0754307 19.2376 0.217602L11.5813 4.47523H3.02912C1.44176 4.47523 0.150391 5.76659 0.150391 7.35395V27.1212C0.150391 28.7085 1.44176 29.9999 3.02912 29.9999H25.5311C27.1185 29.9999 28.4098 28.7085 28.4098 27.1212V21.3159H29.8492V13.9752ZM25.5311 5.62675C26.4177 5.62675 27.142 6.30034 27.2393 7.16224H25.0757L24.2224 5.62675H25.5311ZM19.7978 1.224C20.0678 1.0726 20.4311 1.17849 20.5802 1.44743L23.7583 7.1617H9.11938L19.7978 1.224ZM27.2583 27.1212C27.2583 28.0735 26.4833 28.8485 25.531 28.8485H3.02912C2.07683 28.8485 1.30183 28.0735 1.30183 27.1212V7.35404C1.30183 6.40175 2.07683 5.62675 3.02912 5.62675H9.51087L6.74959 7.16233H3.38898C3.0706 7.16233 2.81322 7.42025 2.81322 7.73809C2.81322 8.05594 3.0706 8.31386 3.38898 8.31386H4.67865H25.7159H27.2583V13.9757H23.0479C21.0926 13.9757 19.5013 15.5671 19.5013 17.5223V17.7699C19.5013 19.7252 21.0927 21.3165 23.0479 21.3165H27.2583V27.1212ZM28.6977 20.1644H28.4098H23.0479C21.7271 20.1644 20.6528 19.0901 20.6528 17.7693V17.5217C20.6528 16.2009 21.7271 15.1265 23.0479 15.1265H28.4098H28.6977V20.1644ZM24.8114 17.6928C24.8114 18.3952 24.2425 18.964 23.5402 18.964C22.8377 18.964 22.269 18.3951 22.269 17.6928C22.269 16.9904 22.8378 16.4216 23.5402 16.4216C24.2426 16.4215 24.8114 16.9909 24.8114 17.6928Z" fill="#5713AE"/>
</svg>
